<?xml version="1.0" encoding="utf-8" standalone="no"?>
<!DOCTYPE svg PUBLIC "-//W3C//DTD SVG 1.1//EN"
  "http://www.w3.org/Graphics/SVG/1.1/DTD/svg11.dtd">
<!-- Created with matplotlib (https://matplotlib.org/) -->
<svg height="345.6pt" version="1.1" viewBox="0 0 460.8 345.6" width="460.8pt" xmlns="http://www.w3.org/2000/svg" xmlns:xlink="http://www.w3.org/1999/xlink">
 <metadata>
  <rdf:RDF xmlns:cc="http://creativecommons.org/ns#" xmlns:dc="http://purl.org/dc/elements/1.1/" xmlns:rdf="http://www.w3.org/1999/02/22-rdf-syntax-ns#">
   <cc:Work>
    <dc:type rdf:resource="http://purl.org/dc/dcmitype/StillImage"/>
    <dc:date>2021-02-18T12:28:33.810952</dc:date>
    <dc:format>image/svg+xml</dc:format>
    <dc:creator>
     <cc:Agent>
      <dc:title>Matplotlib v3.3.4, https://matplotlib.org/</dc:title>
     </cc:Agent>
    </dc:creator>
   </cc:Work>
  </rdf:RDF>
 </metadata>
 <defs>
  <style type="text/css">*{stroke-linecap:butt;stroke-linejoin:round;}</style>
 </defs>
 <g id="figure_1">
  <g id="patch_1">
   <path d="M 0 345.6 
L 460.8 345.6 
L 460.8 0 
L 0 0 
z
" style="fill:#ffffff;"/>
  </g>
  <g id="axes_1">
   <g id="patch_2">
    <path d="M 47.72 303.64 
L 450 303.64 
L 450 37.52448 
L 47.72 37.52448 
z
" style="fill:#ffffff;"/>
   </g>
   <g id="PolyCollection_1">
    <path clip-path="url(#p80caaf1415)" d="M 66.005455 287.106426 
L 66.005455 270.770834 
L 68.262918 267.844048 
L 70.520382 261.461229 
L 72.777845 258.281792 
L 75.035309 254.893865 
L 77.292772 253.774382 
L 79.550236 250.453275 
L 81.807699 247.506001 
L 84.065163 240.480143 
L 86.322626 229.674797 
L 88.58009 212.332852 
L 90.837553 194.8298 
L 93.095017 176.505547 
L 95.35248 158.727683 
L 97.609944 141.274913 
L 99.867407 128.930328 
L 102.124871 115.804926 
L 104.382334 103.51701 
L 106.639798 93.525412 
L 108.897262 83.37282 
L 111.154725 74.176024 
L 113.412189 66.742708 
L 115.669652 60.875417 
L 117.927116 54.871342 
L 120.184579 52.37098 
L 122.442043 50.804609 
L 124.699506 49.62064 
L 126.95697 50.23458 
L 129.214433 52.212037 
L 131.471897 56.84286 
L 133.72936 61.23448 
L 135.986824 66.343218 
L 138.244287 72.168338 
L 140.501751 76.803761 
L 142.759214 83.612087 
L 145.016678 87.396875 
L 147.274141 93.357289 
L 149.531605 98.669737 
L 151.789068 102.591119 
L 154.046532 107.074149 
L 156.303996 110.478858 
L 158.561459 114.293945 
L 160.818923 117.362179 
L 163.076386 120.773489 
L 165.33385 123.333084 
L 167.591313 126.625324 
L 169.848777 128.675357 
L 172.10624 131.966469 
L 174.363704 135.516581 
L 176.621167 138.684683 
L 178.878631 141.387564 
L 181.136094 143.391028 
L 183.393558 146.925527 
L 185.651021 149.622173 
L 187.908485 151.812226 
L 190.165948 154.452357 
L 192.423412 158.186311 
L 194.680875 160.784166 
L 196.938339 163.517318 
L 199.195802 165.770475 
L 201.453266 167.453236 
L 203.71073 171.252945 
L 205.968193 173.158763 
L 208.225657 177.069033 
L 210.48312 177.899815 
L 212.740584 181.772484 
L 214.998047 183.927178 
L 217.255511 186.496813 
L 219.512974 189.419639 
L 221.770438 191.211372 
L 224.027901 194.505964 
L 226.285365 196.851148 
L 228.542828 198.832304 
L 230.800292 200.411887 
L 233.057755 202.985704 
L 235.315219 205.010752 
L 237.572682 206.875169 
L 239.830146 208.522275 
L 242.087609 209.694374 
L 244.345073 212.734595 
L 246.602536 213.81792 
L 248.86 216.685366 
L 251.117464 216.991103 
L 253.374927 219.645743 
L 255.632391 220.013824 
L 257.889854 223.457822 
L 260.147318 223.076004 
L 262.404781 225.560087 
L 264.662245 226.464786 
L 266.919708 228.825499 
L 269.177172 230.205966 
L 271.434635 233.954225 
L 273.692099 234.238642 
L 275.949562 237.896799 
L 278.207026 236.494219 
L 280.464489 238.047725 
L 282.721953 239.673926 
L 284.979416 239.57881 
L 287.23688 240.986527 
L 289.494343 241.368101 
L 291.751807 242.360169 
L 294.00927 240.375464 
L 296.266734 243.033806 
L 298.524198 242.024992 
L 300.781661 242.200172 
L 303.039125 244.244732 
L 305.296588 243.7806 
L 307.554052 243.569041 
L 309.811515 244.349223 
L 312.068979 244.128971 
L 314.326442 242.750233 
L 316.583906 242.703072 
L 318.841369 240.600883 
L 321.098833 242.664001 
L 323.356296 241.344963 
L 325.61376 240.211206 
L 327.871223 241.313254 
L 330.128687 240.555931 
L 332.38615 240.143907 
L 334.643614 239.668976 
L 336.901077 238.598756 
L 339.158541 238.134241 
L 341.416004 236.46455 
L 343.673468 236.394116 
L 345.930932 232.79024 
L 348.188395 235.109252 
L 350.445859 232.740375 
L 352.703322 233.695056 
L 354.960786 233.305165 
L 357.218249 233.204436 
L 359.475713 232.16457 
L 361.733176 230.840056 
L 363.99064 231.389422 
L 366.248103 230.93748 
L 368.505567 230.744779 
L 370.76303 231.297899 
L 373.020494 229.806487 
L 375.277957 229.586133 
L 377.535421 228.518037 
L 379.792884 227.955448 
L 382.050348 226.802161 
L 384.307811 227.090321 
L 386.565275 226.713189 
L 388.822738 225.521806 
L 391.080202 225.921941 
L 393.337666 225.057859 
L 395.595129 223.956534 
L 397.852593 225.315402 
L 400.110056 224.124142 
L 402.36752 222.603394 
L 404.624983 223.186594 
L 406.882447 222.276372 
L 409.13991 221.70309 
L 411.397374 221.368941 
L 413.654837 219.473612 
L 415.912301 219.995861 
L 418.169764 221.294537 
L 420.427228 220.309695 
L 422.684691 219.903828 
L 424.942155 219.741126 
L 427.199618 218.701085 
L 429.457082 218.791478 
L 431.714545 217.567658 
L 431.714545 244.349277 
L 431.714545 244.349277 
L 429.457082 245.972108 
L 427.199618 245.7059 
L 424.942155 246.79549 
L 422.684691 247.344835 
L 420.427228 247.859152 
L 418.169764 248.998026 
L 415.912301 247.095524 
L 413.654837 246.809108 
L 411.397374 248.433659 
L 409.13991 248.846908 
L 406.882447 249.487718 
L 404.624983 250.855711 
L 402.36752 249.991047 
L 400.110056 251.838619 
L 397.852593 252.752281 
L 395.595129 251.461034 
L 393.337666 252.841235 
L 391.080202 253.89974 
L 388.822738 253.562726 
L 386.565275 254.737704 
L 384.307811 255.104308 
L 382.050348 255.035156 
L 379.792884 256.092502 
L 377.535421 257.288463 
L 375.277957 257.935985 
L 373.020494 258.343628 
L 370.76303 259.377296 
L 368.505567 259.002487 
L 366.248103 259.665087 
L 363.99064 259.95824 
L 361.733176 259.265847 
L 359.475713 260.417427 
L 357.218249 261.767936 
L 354.960786 261.914605 
L 352.703322 262.164713 
L 350.445859 261.210058 
L 348.188395 264.052945 
L 345.930932 261.321331 
L 343.673468 265.408684 
L 341.416004 265.702969 
L 339.158541 267.149346 
L 336.901077 267.952383 
L 334.643614 268.88719 
L 332.38615 269.494247 
L 330.128687 269.576614 
L 327.871223 270.333683 
L 325.61376 269.104004 
L 323.356296 270.093018 
L 321.098833 271.281966 
L 318.841369 269.697415 
L 316.583906 271.740019 
L 314.326442 272.034955 
L 312.068979 273.260934 
L 309.811515 273.495223 
L 307.554052 272.760565 
L 305.296588 272.54728 
L 303.039125 273.483343 
L 300.781661 271.238236 
L 298.524198 270.701281 
L 296.266734 272.028001 
L 294.00927 269.223831 
L 291.751807 271.379206 
L 289.494343 270.483619 
L 287.23688 270.055769 
L 284.979416 267.607866 
L 282.721953 268.034398 
L 280.464489 266.088241 
L 278.207026 264.486883 
L 275.949562 264.779205 
L 273.692099 260.220263 
L 271.434635 259.978496 
L 269.177172 255.349593 
L 266.919708 254.310264 
L 264.662245 251.926812 
L 262.404781 251.398229 
L 260.147318 248.802914 
L 257.889854 249.760269 
L 255.632391 245.964403 
L 253.374927 246.009153 
L 251.117464 243.284332 
L 248.86 243.277961 
L 246.602536 240.520885 
L 244.345073 239.997558 
L 242.087609 236.621468 
L 239.830146 235.551932 
L 237.572682 234.098361 
L 235.315219 232.228711 
L 233.057755 230.072921 
L 230.800292 227.573837 
L 228.542828 226.267782 
L 226.285365 224.420527 
L 224.027901 222.454494 
L 221.770438 218.217738 
L 219.512974 217.354446 
L 217.255511 214.848756 
L 214.998047 211.79962 
L 212.740584 209.892277 
L 210.48312 206.456194 
L 208.225657 205.486231 
L 205.968193 202.814947 
L 203.71073 201.018101 
L 201.453266 197.314742 
L 199.195802 195.631955 
L 196.938339 193.725657 
L 194.680875 190.649883 
L 192.423412 188.003794 
L 190.165948 184.741564 
L 187.908485 181.924387 
L 185.651021 179.596856 
L 183.393558 176.699804 
L 181.136094 172.715103 
L 178.878631 171.332422 
L 176.621167 168.342903 
L 174.363704 165.154248 
L 172.10624 161.548305 
L 169.848777 157.892734 
L 167.591313 156.157551 
L 165.33385 152.868973 
L 163.076386 150.49345 
L 160.818923 147.108755 
L 158.561459 143.76251 
L 156.303996 140.191718 
L 154.046532 137.134101 
L 151.789068 132.964672 
L 149.531605 129.920172 
L 147.274141 124.982305 
L 145.016678 118.998466 
L 142.759214 116.189703 
L 140.501751 110.034501 
L 138.244287 105.616386 
L 135.986824 100.414312 
L 133.72936 95.684352 
L 131.471897 91.450008 
L 129.214433 86.87519 
L 126.95697 84.080537 
L 124.699506 82.782349 
L 122.442043 83.459188 
L 120.184579 83.822162 
L 117.927116 85.680251 
L 115.669652 90.64658 
L 113.412189 95.603835 
L 111.154725 102.472474 
L 108.897262 110.622246 
L 106.639798 120.500706 
L 104.382334 129.777154 
L 102.124871 141.044867 
L 99.867407 153.829862 
L 97.609944 165.461863 
L 95.35248 181.673445 
L 93.095017 199.114589 
L 90.837553 216.106356 
L 88.58009 232.07949 
L 86.322626 248.029124 
L 84.065163 257.580471 
L 81.807699 263.977445 
L 79.550236 266.762523 
L 77.292772 270.060464 
L 75.035309 272.712642 
L 72.777845 276.351468 
L 70.520382 279.607769 
L 68.262918 284.89658 
L 66.005455 287.106426 
z
" style="fill:#1f77b4;fill-opacity:0.3;"/>
   </g>
   <g id="PolyCollection_2">
    <path clip-path="url(#p80caaf1415)" d="M 66.005455 291.54384 
L 66.005455 274.979676 
L 68.262918 270.1992 
L 70.520382 261.695891 
L 72.777845 259.837517 
L 75.035309 260.783874 
L 77.292772 257.325315 
L 79.550236 254.93722 
L 81.807699 251.798975 
L 84.065163 245.238137 
L 86.322626 238.000953 
L 88.58009 225.421232 
L 90.837553 210.630325 
L 93.095017 197.053337 
L 95.35248 181.597519 
L 97.609944 167.788225 
L 99.867407 155.830363 
L 102.124871 143.813527 
L 104.382334 133.52771 
L 106.639798 123.804677 
L 108.897262 113.637109 
L 111.154725 106.490697 
L 113.412189 100.139002 
L 115.669652 94.648186 
L 117.927116 90.361085 
L 120.184579 87.301751 
L 122.442043 84.61922 
L 124.699506 82.392234 
L 126.95697 81.416252 
L 129.214433 79.83058 
L 131.471897 80.834353 
L 133.72936 81.007174 
L 135.986824 81.610763 
L 138.244287 83.11635 
L 140.501751 84.979358 
L 142.759214 87.820753 
L 145.016678 89.390981 
L 147.274141 92.533114 
L 149.531605 95.314111 
L 151.789068 97.521039 
L 154.046532 98.409982 
L 156.303996 101.059095 
L 158.561459 103.156891 
L 160.818923 104.896827 
L 163.076386 106.253461 
L 165.33385 107.3519 
L 167.591313 109.069546 
L 169.848777 108.91825 
L 172.10624 110.304223 
L 174.363704 112.741922 
L 176.621167 114.031193 
L 178.878631 115.238144 
L 181.136094 114.579127 
L 183.393558 117.347415 
L 185.651021 119.423436 
L 187.908485 119.938014 
L 190.165948 121.093347 
L 192.423412 123.722424 
L 194.680875 125.372103 
L 196.938339 126.930145 
L 199.195802 128.182756 
L 201.453266 129.411005 
L 203.71073 132.533112 
L 205.968193 132.905416 
L 208.225657 135.465392 
L 210.48312 135.970076 
L 212.740584 138.543968 
L 214.998047 140.770145 
L 217.255511 143.861896 
L 219.512974 144.86937 
L 221.770438 147.886196 
L 224.027901 152.241127 
L 226.285365 153.934487 
L 228.542828 155.094804 
L 230.800292 156.891655 
L 233.057755 159.196433 
L 235.315219 161.653417 
L 237.572682 165.195301 
L 239.830146 166.402021 
L 242.087609 167.580447 
L 244.345073 171.450217 
L 246.602536 173.005455 
L 248.86 174.169397 
L 251.117464 177.244306 
L 253.374927 179.521154 
L 255.632391 180.083784 
L 257.889854 183.77426 
L 260.147318 184.197193 
L 262.404781 186.900234 
L 264.662245 188.177014 
L 266.919708 190.823327 
L 269.177172 193.244015 
L 271.434635 195.616252 
L 273.692099 195.884625 
L 275.949562 199.992251 
L 278.207026 200.15207 
L 280.464489 203.345918 
L 282.721953 205.380497 
L 284.979416 207.011443 
L 287.23688 208.210464 
L 289.494343 209.646303 
L 291.751807 211.874584 
L 294.00927 211.55105 
L 296.266734 214.915596 
L 298.524198 214.253611 
L 300.781661 217.026785 
L 303.039125 219.23277 
L 305.296588 220.852933 
L 307.554052 221.172457 
L 309.811515 223.029556 
L 312.068979 224.42363 
L 314.326442 223.795151 
L 316.583906 225.11644 
L 318.841369 227.855405 
L 321.098833 230.69619 
L 323.356296 230.321562 
L 325.61376 229.812177 
L 327.871223 233.430193 
L 330.128687 233.595844 
L 332.38615 233.437864 
L 334.643614 236.326594 
L 336.901077 238.282736 
L 339.158541 237.400898 
L 341.416004 237.941908 
L 343.673468 239.380406 
L 345.930932 238.648953 
L 348.188395 240.844915 
L 350.445859 240.411621 
L 352.703322 242.875204 
L 354.960786 244.106165 
L 357.218249 245.447882 
L 359.475713 244.778022 
L 361.733176 243.901822 
L 363.99064 245.776668 
L 366.248103 247.268588 
L 368.505567 246.782631 
L 370.76303 247.613772 
L 373.020494 247.38496 
L 375.277957 247.796756 
L 377.535421 247.845288 
L 379.792884 247.987265 
L 382.050348 247.196415 
L 384.307811 249.10873 
L 386.565275 247.634016 
L 388.822738 247.872583 
L 391.080202 248.758832 
L 393.337666 246.803037 
L 395.595129 245.700289 
L 397.852593 246.785513 
L 400.110056 246.239123 
L 402.36752 244.581292 
L 404.624983 246.432692 
L 406.882447 244.538295 
L 409.13991 244.430721 
L 411.397374 244.13591 
L 413.654837 242.490078 
L 415.912301 242.198525 
L 418.169764 243.63434 
L 420.427228 243.56059 
L 422.684691 242.024108 
L 424.942155 242.592109 
L 427.199618 241.107603 
L 429.457082 242.151729 
L 431.714545 239.938511 
L 431.714545 262.382897 
L 431.714545 262.382897 
L 429.457082 264.565905 
L 427.199618 263.647075 
L 424.942155 264.813758 
L 422.684691 263.939679 
L 420.427228 265.528081 
L 418.169764 265.338878 
L 415.912301 263.796216 
L 413.654837 264.087279 
L 411.397374 266.33254 
L 409.13991 266.237696 
L 406.882447 266.78325 
L 404.624983 268.401781 
L 402.36752 266.686406 
L 400.110056 268.198517 
L 397.852593 269.146799 
L 395.595129 267.889011 
L 393.337666 269.355274 
L 391.080202 271.411847 
L 388.822738 270.456354 
L 386.565275 270.849122 
L 384.307811 272.319677 
L 382.050348 269.726026 
L 379.792884 270.831434 
L 377.535421 271.567481 
L 375.277957 271.033188 
L 373.020494 270.987366 
L 370.76303 271.325719 
L 368.505567 270.943997 
L 366.248103 270.976234 
L 363.99064 270.165627 
L 361.733176 268.176254 
L 359.475713 269.281285 
L 357.218249 269.895022 
L 354.960786 269.313387 
L 352.703322 267.798688 
L 350.445859 265.468466 
L 348.188395 265.805856 
L 345.930932 264.03151 
L 343.673468 264.607219 
L 341.416004 263.36956 
L 339.158541 263.072354 
L 336.901077 264.106656 
L 334.643614 260.924215 
L 332.38615 258.357422 
L 330.128687 258.380559 
L 327.871223 258.652575 
L 325.61376 255.37164 
L 323.356296 255.655967 
L 321.098833 255.741374 
L 318.841369 252.900776 
L 316.583906 248.907562 
L 314.326442 247.59681 
L 312.068979 247.945174 
L 309.811515 247.192524 
L 307.554052 244.789889 
L 305.296588 244.814164 
L 303.039125 242.870942 
L 300.781661 241.250218 
L 298.524198 238.505199 
L 296.266734 239.212862 
L 294.00927 235.766601 
L 291.751807 235.873675 
L 289.494343 233.962247 
L 287.23688 232.313325 
L 284.979416 231.272725 
L 282.721953 229.851937 
L 280.464489 227.624016 
L 278.207026 224.592908 
L 275.949562 224.118162 
L 273.692099 219.966929 
L 271.434635 219.642278 
L 269.177172 217.065866 
L 266.919708 214.699511 
L 264.662245 212.46997 
L 262.404781 211.025869 
L 260.147318 208.313622 
L 257.889854 208.100867 
L 255.632391 204.048257 
L 253.374927 203.781002 
L 251.117464 201.444803 
L 248.86 198.347528 
L 246.602536 197.26121 
L 244.345073 195.518403 
L 242.087609 191.729975 
L 239.830146 190.490987 
L 237.572682 189.26423 
L 235.315219 185.758725 
L 233.057755 183.145304 
L 230.800292 181.274471 
L 228.542828 179.40141 
L 226.285365 178.173381 
L 224.027901 176.693013 
L 221.770438 172.556274 
L 219.512974 169.334302 
L 217.255511 168.53217 
L 214.998047 166.190159 
L 212.740584 163.834916 
L 210.48312 161.462383 
L 208.225657 161.272526 
L 205.968193 158.581377 
L 203.71073 158.978122 
L 201.453266 155.37294 
L 199.195802 154.351393 
L 196.938339 153.097664 
L 194.680875 151.746283 
L 192.423412 149.572128 
L 190.165948 146.984117 
L 187.908485 146.344376 
L 185.651021 145.531292 
L 183.393558 143.860721 
L 181.136094 141.13453 
L 178.878631 141.667516 
L 176.621167 140.367021 
L 174.363704 138.568448 
L 172.10624 137.006053 
L 169.848777 135.32385 
L 167.591313 135.363184 
L 165.33385 133.972844 
L 163.076386 133.072881 
L 160.818923 131.555885 
L 158.561459 129.659931 
L 156.303996 127.513377 
L 154.046532 125.268718 
L 151.789068 124.391805 
L 149.531605 122.125879 
L 147.274141 119.300834 
L 145.016678 116.222988 
L 142.759214 114.908239 
L 140.501751 111.532379 
L 138.244287 109.67714 
L 135.986824 108.310805 
L 133.72936 107.507478 
L 131.471897 107.817119 
L 129.214433 106.492624 
L 126.95697 107.682186 
L 124.699506 109.003117 
L 122.442043 111.19435 
L 120.184579 113.316648 
L 117.927116 116.247327 
L 115.669652 120.893148 
L 113.412189 125.954361 
L 111.154725 132.024301 
L 108.897262 139.185051 
L 106.639798 148.645154 
L 104.382334 158.462629 
L 102.124871 168.198754 
L 99.867407 180.160964 
L 97.609944 191.382663 
L 95.35248 204.691195 
L 93.095017 219.225269 
L 90.837553 231.655688 
L 88.58009 245.211474 
L 86.322626 257.158888 
L 84.065163 263.336694 
L 81.807699 269.193916 
L 79.550236 272.492766 
L 77.292772 274.50818 
L 75.035309 277.43934 
L 72.777845 276.331046 
L 70.520382 278.297599 
L 68.262918 286.828346 
L 66.005455 291.54384 
z
" style="fill:#ff7f0e;fill-opacity:0.3;"/>
   </g>
   <g id="matplotlib.axis_1">
    <g id="xtick_1">
     <g id="line2d_1">
      <defs>
       <path d="M 0 0 
L 0 3.5 
" id="m26e8b48c1e" style="stroke:#000000;stroke-width:0.8;"/>
      </defs>
      <g>
       <use style="stroke:#000000;stroke-width:0.8;" x="66.005455" xlink:href="#m26e8b48c1e" y="303.64"/>
      </g>
     </g>
     <g id="text_1">
      <!-- 0 -->
      <g transform="translate(62.824205 318.238437)scale(0.1 -0.1)">
       <defs>
        <path d="M 31.78125 66.40625 
Q 24.171875 66.40625 20.328125 58.90625 
Q 16.5 51.421875 16.5 36.375 
Q 16.5 21.390625 20.328125 13.890625 
Q 24.171875 6.390625 31.78125 6.390625 
Q 39.453125 6.390625 43.28125 13.890625 
Q 47.125 21.390625 47.125 36.375 
Q 47.125 51.421875 43.28125 58.90625 
Q 39.453125 66.40625 31.78125 66.40625 
z
M 31.78125 74.21875 
Q 44.046875 74.21875 50.515625 64.515625 
Q 56.984375 54.828125 56.984375 36.375 
Q 56.984375 17.96875 50.515625 8.265625 
Q 44.046875 -1.421875 31.78125 -1.421875 
Q 19.53125 -1.421875 13.0625 8.265625 
Q 6.59375 17.96875 6.59375 36.375 
Q 6.59375 54.828125 13.0625 64.515625 
Q 19.53125 74.21875 31.78125 74.21875 
z
" id="DejaVuSans-48"/>
       </defs>
       <use xlink:href="#DejaVuSans-48"/>
      </g>
     </g>
    </g>
    <g id="xtick_2">
     <g id="line2d_2">
      <g>
       <use style="stroke:#000000;stroke-width:0.8;" x="111.154725" xlink:href="#m26e8b48c1e" y="303.64"/>
      </g>
     </g>
     <g id="text_2">
      <!-- 10 -->
      <g transform="translate(104.792225 318.238437)scale(0.1 -0.1)">
       <defs>
        <path d="M 12.40625 8.296875 
L 28.515625 8.296875 
L 28.515625 63.921875 
L 10.984375 60.40625 
L 10.984375 69.390625 
L 28.421875 72.90625 
L 38.28125 72.90625 
L 38.28125 8.296875 
L 54.390625 8.296875 
L 54.390625 0 
L 12.40625 0 
z
" id="DejaVuSans-49"/>
       </defs>
       <use xlink:href="#DejaVuSans-49"/>
       <use x="63.623047" xlink:href="#DejaVuSans-48"/>
      </g>
     </g>
    </g>
    <g id="xtick_3">
     <g id="line2d_3">
      <g>
       <use style="stroke:#000000;stroke-width:0.8;" x="156.303996" xlink:href="#m26e8b48c1e" y="303.64"/>
      </g>
     </g>
     <g id="text_3">
      <!-- 20 -->
      <g transform="translate(149.941496 318.238437)scale(0.1 -0.1)">
       <defs>
        <path d="M 19.1875 8.296875 
L 53.609375 8.296875 
L 53.609375 0 
L 7.328125 0 
L 7.328125 8.296875 
Q 12.9375 14.109375 22.625 23.890625 
Q 32.328125 33.6875 34.8125 36.53125 
Q 39.546875 41.84375 41.421875 45.53125 
Q 43.3125 49.21875 43.3125 52.78125 
Q 43.3125 58.59375 39.234375 62.25 
Q 35.15625 65.921875 28.609375 65.921875 
Q 23.96875 65.921875 18.8125 64.3125 
Q 13.671875 62.703125 7.8125 59.421875 
L 7.8125 69.390625 
Q 13.765625 71.78125 18.9375 73 
Q 24.125 74.21875 28.421875 74.21875 
Q 39.75 74.21875 46.484375 68.546875 
Q 53.21875 62.890625 53.21875 53.421875 
Q 53.21875 48.921875 51.53125 44.890625 
Q 49.859375 40.875 45.40625 35.40625 
Q 44.1875 33.984375 37.640625 27.21875 
Q 31.109375 20.453125 19.1875 8.296875 
z
" id="DejaVuSans-50"/>
       </defs>
       <use xlink:href="#DejaVuSans-50"/>
       <use x="63.623047" xlink:href="#DejaVuSans-48"/>
      </g>
     </g>
    </g>
    <g id="xtick_4">
     <g id="line2d_4">
      <g>
       <use style="stroke:#000000;stroke-width:0.8;" x="201.453266" xlink:href="#m26e8b48c1e" y="303.64"/>
      </g>
     </g>
     <g id="text_4">
      <!-- 30 -->
      <g transform="translate(195.090766 318.238437)scale(0.1 -0.1)">
       <defs>
        <path d="M 40.578125 39.3125 
Q 47.65625 37.796875 51.625 33 
Q 55.609375 28.21875 55.609375 21.1875 
Q 55.609375 10.40625 48.1875 4.484375 
Q 40.765625 -1.421875 27.09375 -1.421875 
Q 22.515625 -1.421875 17.65625 -0.515625 
Q 12.796875 0.390625 7.625 2.203125 
L 7.625 11.71875 
Q 11.71875 9.328125 16.59375 8.109375 
Q 21.484375 6.890625 26.8125 6.890625 
Q 36.078125 6.890625 40.9375 10.546875 
Q 45.796875 14.203125 45.796875 21.1875 
Q 45.796875 27.640625 41.28125 31.265625 
Q 36.765625 34.90625 28.71875 34.90625 
L 20.21875 34.90625 
L 20.21875 43.015625 
L 29.109375 43.015625 
Q 36.375 43.015625 40.234375 45.921875 
Q 44.09375 48.828125 44.09375 54.296875 
Q 44.09375 59.90625 40.109375 62.90625 
Q 36.140625 65.921875 28.71875 65.921875 
Q 24.65625 65.921875 20.015625 65.03125 
Q 15.375 64.15625 9.8125 62.3125 
L 9.8125 71.09375 
Q 15.4375 72.65625 20.34375 73.4375 
Q 25.25 74.21875 29.59375 74.21875 
Q 40.828125 74.21875 47.359375 69.109375 
Q 53.90625 64.015625 53.90625 55.328125 
Q 53.90625 49.265625 50.4375 45.09375 
Q 46.96875 40.921875 40.578125 39.3125 
z
" id="DejaVuSans-51"/>
       </defs>
       <use xlink:href="#DejaVuSans-51"/>
       <use x="63.623047" xlink:href="#DejaVuSans-48"/>
      </g>
     </g>
    </g>
    <g id="xtick_5">
     <g id="line2d_5">
      <g>
       <use style="stroke:#000000;stroke-width:0.8;" x="246.602536" xlink:href="#m26e8b48c1e" y="303.64"/>
      </g>
     </g>
     <g id="text_5">
      <!-- 40 -->
      <g transform="translate(240.240036 318.238437)scale(0.1 -0.1)">
       <defs>
        <path d="M 37.796875 64.3125 
L 12.890625 25.390625 
L 37.796875 25.390625 
z
M 35.203125 72.90625 
L 47.609375 72.90625 
L 47.609375 25.390625 
L 58.015625 25.390625 
L 58.015625 17.1875 
L 47.609375 17.1875 
L 47.609375 0 
L 37.796875 0 
L 37.796875 17.1875 
L 4.890625 17.1875 
L 4.890625 26.703125 
z
" id="DejaVuSans-52"/>
       </defs>
       <use xlink:href="#DejaVuSans-52"/>
       <use x="63.623047" xlink:href="#DejaVuSans-48"/>
      </g>
     </g>
    </g>
    <g id="xtick_6">
     <g id="line2d_6">
      <g>
       <use style="stroke:#000000;stroke-width:0.8;" x="291.751807" xlink:href="#m26e8b48c1e" y="303.64"/>
      </g>
     </g>
     <g id="text_6">
      <!-- 50 -->
      <g transform="translate(285.389307 318.238437)scale(0.1 -0.1)">
       <defs>
        <path d="M 10.796875 72.90625 
L 49.515625 72.90625 
L 49.515625 64.59375 
L 19.828125 64.59375 
L 19.828125 46.734375 
Q 21.96875 47.46875 24.109375 47.828125 
Q 26.265625 48.1875 28.421875 48.1875 
Q 40.625 48.1875 47.75 41.5 
Q 54.890625 34.8125 54.890625 23.390625 
Q 54.890625 11.625 47.5625 5.09375 
Q 40.234375 -1.421875 26.90625 -1.421875 
Q 22.3125 -1.421875 17.546875 -0.640625 
Q 12.796875 0.140625 7.71875 1.703125 
L 7.71875 11.625 
Q 12.109375 9.234375 16.796875 8.0625 
Q 21.484375 6.890625 26.703125 6.890625 
Q 35.15625 6.890625 40.078125 11.328125 
Q 45.015625 15.765625 45.015625 23.390625 
Q 45.015625 31 40.078125 35.4375 
Q 35.15625 39.890625 26.703125 39.890625 
Q 22.75 39.890625 18.8125 39.015625 
Q 14.890625 38.140625 10.796875 36.28125 
z
" id="DejaVuSans-53"/>
       </defs>
       <use xlink:href="#DejaVuSans-53"/>
       <use x="63.623047" xlink:href="#DejaVuSans-48"/>
      </g>
     </g>
    </g>
    <g id="xtick_7">
     <g id="line2d_7">
      <g>
       <use style="stroke:#000000;stroke-width:0.8;" x="336.901077" xlink:href="#m26e8b48c1e" y="303.64"/>
      </g>
     </g>
     <g id="text_7">
      <!-- 60 -->
      <g transform="translate(330.538577 318.238437)scale(0.1 -0.1)">
       <defs>
        <path d="M 33.015625 40.375 
Q 26.375 40.375 22.484375 35.828125 
Q 18.609375 31.296875 18.609375 23.390625 
Q 18.609375 15.53125 22.484375 10.953125 
Q 26.375 6.390625 33.015625 6.390625 
Q 39.65625 6.390625 43.53125 10.953125 
Q 47.40625 15.53125 47.40625 23.390625 
Q 47.40625 31.296875 43.53125 35.828125 
Q 39.65625 40.375 33.015625 40.375 
z
M 52.59375 71.296875 
L 52.59375 62.3125 
Q 48.875 64.0625 45.09375 64.984375 
Q 41.3125 65.921875 37.59375 65.921875 
Q 27.828125 65.921875 22.671875 59.328125 
Q 17.53125 52.734375 16.796875 39.40625 
Q 19.671875 43.65625 24.015625 45.921875 
Q 28.375 48.1875 33.59375 48.1875 
Q 44.578125 48.1875 50.953125 41.515625 
Q 57.328125 34.859375 57.328125 23.390625 
Q 57.328125 12.15625 50.6875 5.359375 
Q 44.046875 -1.421875 33.015625 -1.421875 
Q 20.359375 -1.421875 13.671875 8.265625 
Q 6.984375 17.96875 6.984375 36.375 
Q 6.984375 53.65625 15.1875 63.9375 
Q 23.390625 74.21875 37.203125 74.21875 
Q 40.921875 74.21875 44.703125 73.484375 
Q 48.484375 72.75 52.59375 71.296875 
z
" id="DejaVuSans-54"/>
       </defs>
       <use xlink:href="#DejaVuSans-54"/>
       <use x="63.623047" xlink:href="#DejaVuSans-48"/>
      </g>
     </g>
    </g>
    <g id="xtick_8">
     <g id="line2d_8">
      <g>
       <use style="stroke:#000000;stroke-width:0.8;" x="382.050348" xlink:href="#m26e8b48c1e" y="303.64"/>
      </g>
     </g>
     <g id="text_8">
      <!-- 70 -->
      <g transform="translate(375.687848 318.238437)scale(0.1 -0.1)">
       <defs>
        <path d="M 8.203125 72.90625 
L 55.078125 72.90625 
L 55.078125 68.703125 
L 28.609375 0 
L 18.3125 0 
L 43.21875 64.59375 
L 8.203125 64.59375 
z
" id="DejaVuSans-55"/>
       </defs>
       <use xlink:href="#DejaVuSans-55"/>
       <use x="63.623047" xlink:href="#DejaVuSans-48"/>
      </g>
     </g>
    </g>
    <g id="xtick_9">
     <g id="line2d_9">
      <g>
       <use style="stroke:#000000;stroke-width:0.8;" x="427.199618" xlink:href="#m26e8b48c1e" y="303.64"/>
      </g>
     </g>
     <g id="text_9">
      <!-- 80 -->
      <g transform="translate(420.837118 318.238437)scale(0.1 -0.1)">
       <defs>
        <path d="M 31.78125 34.625 
Q 24.75 34.625 20.71875 30.859375 
Q 16.703125 27.09375 16.703125 20.515625 
Q 16.703125 13.921875 20.71875 10.15625 
Q 24.75 6.390625 31.78125 6.390625 
Q 38.8125 6.390625 42.859375 10.171875 
Q 46.921875 13.96875 46.921875 20.515625 
Q 46.921875 27.09375 42.890625 30.859375 
Q 38.875 34.625 31.78125 34.625 
z
M 21.921875 38.8125 
Q 15.578125 40.375 12.03125 44.71875 
Q 8.5 49.078125 8.5 55.328125 
Q 8.5 64.0625 14.71875 69.140625 
Q 20.953125 74.21875 31.78125 74.21875 
Q 42.671875 74.21875 48.875 69.140625 
Q 55.078125 64.0625 55.078125 55.328125 
Q 55.078125 49.078125 51.53125 44.71875 
Q 48 40.375 41.703125 38.8125 
Q 48.828125 37.15625 52.796875 32.3125 
Q 56.78125 27.484375 56.78125 20.515625 
Q 56.78125 9.90625 50.3125 4.234375 
Q 43.84375 -1.421875 31.78125 -1.421875 
Q 19.734375 -1.421875 13.25 4.234375 
Q 6.78125 9.90625 6.78125 20.515625 
Q 6.78125 27.484375 10.78125 32.3125 
Q 14.796875 37.15625 21.921875 38.8125 
z
M 18.3125 54.390625 
Q 18.3125 48.734375 21.84375 45.5625 
Q 25.390625 42.390625 31.78125 42.390625 
Q 38.140625 42.390625 41.71875 45.5625 
Q 45.3125 48.734375 45.3125 54.390625 
Q 45.3125 60.0625 41.71875 63.234375 
Q 38.140625 66.40625 31.78125 66.40625 
Q 25.390625 66.40625 21.84375 63.234375 
Q 18.3125 60.0625 18.3125 54.390625 
z
" id="DejaVuSans-56"/>
       </defs>
       <use xlink:href="#DejaVuSans-56"/>
       <use x="63.623047" xlink:href="#DejaVuSans-48"/>
      </g>
     </g>
    </g>
    <g id="text_10">
     <!-- time (h) -->
     <g transform="translate(228.904531 331.916562)scale(0.1 -0.1)">
      <defs>
       <path d="M 18.3125 70.21875 
L 18.3125 54.6875 
L 36.8125 54.6875 
L 36.8125 47.703125 
L 18.3125 47.703125 
L 18.3125 18.015625 
Q 18.3125 11.328125 20.140625 9.421875 
Q 21.96875 7.515625 27.59375 7.515625 
L 36.8125 7.515625 
L 36.8125 0 
L 27.59375 0 
Q 17.1875 0 13.234375 3.875 
Q 9.28125 7.765625 9.28125 18.015625 
L 9.28125 47.703125 
L 2.6875 47.703125 
L 2.6875 54.6875 
L 9.28125 54.6875 
L 9.28125 70.21875 
z
" id="DejaVuSans-116"/>
       <path d="M 9.421875 54.6875 
L 18.40625 54.6875 
L 18.40625 0 
L 9.421875 0 
z
M 9.421875 75.984375 
L 18.40625 75.984375 
L 18.40625 64.59375 
L 9.421875 64.59375 
z
" id="DejaVuSans-105"/>
       <path d="M 52 44.1875 
Q 55.375 50.25 60.0625 53.125 
Q 64.75 56 71.09375 56 
Q 79.640625 56 84.28125 50.015625 
Q 88.921875 44.046875 88.921875 33.015625 
L 88.921875 0 
L 79.890625 0 
L 79.890625 32.71875 
Q 79.890625 40.578125 77.09375 44.375 
Q 74.3125 48.1875 68.609375 48.1875 
Q 61.625 48.1875 57.5625 43.546875 
Q 53.515625 38.921875 53.515625 30.90625 
L 53.515625 0 
L 44.484375 0 
L 44.484375 32.71875 
Q 44.484375 40.625 41.703125 44.40625 
Q 38.921875 48.1875 33.109375 48.1875 
Q 26.21875 48.1875 22.15625 43.53125 
Q 18.109375 38.875 18.109375 30.90625 
L 18.109375 0 
L 9.078125 0 
L 9.078125 54.6875 
L 18.109375 54.6875 
L 18.109375 46.1875 
Q 21.1875 51.21875 25.484375 53.609375 
Q 29.78125 56 35.6875 56 
Q 41.65625 56 45.828125 52.96875 
Q 50 49.953125 52 44.1875 
z
" id="DejaVuSans-109"/>
       <path d="M 56.203125 29.59375 
L 56.203125 25.203125 
L 14.890625 25.203125 
Q 15.484375 15.921875 20.484375 11.0625 
Q 25.484375 6.203125 34.421875 6.203125 
Q 39.59375 6.203125 44.453125 7.46875 
Q 49.3125 8.734375 54.109375 11.28125 
L 54.109375 2.78125 
Q 49.265625 0.734375 44.1875 -0.34375 
Q 39.109375 -1.421875 33.890625 -1.421875 
Q 20.796875 -1.421875 13.15625 6.1875 
Q 5.515625 13.8125 5.515625 26.8125 
Q 5.515625 40.234375 12.765625 48.109375 
Q 20.015625 56 32.328125 56 
Q 43.359375 56 49.78125 48.890625 
Q 56.203125 41.796875 56.203125 29.59375 
z
M 47.21875 32.234375 
Q 47.125 39.59375 43.09375 43.984375 
Q 39.0625 48.390625 32.421875 48.390625 
Q 24.90625 48.390625 20.390625 44.140625 
Q 15.875 39.890625 15.1875 32.171875 
z
" id="DejaVuSans-101"/>
       <path id="DejaVuSans-32"/>
       <path d="M 31 75.875 
Q 24.46875 64.65625 21.28125 53.65625 
Q 18.109375 42.671875 18.109375 31.390625 
Q 18.109375 20.125 21.3125 9.0625 
Q 24.515625 -2 31 -13.1875 
L 23.1875 -13.1875 
Q 15.875 -1.703125 12.234375 9.375 
Q 8.59375 20.453125 8.59375 31.390625 
Q 8.59375 42.28125 12.203125 53.3125 
Q 15.828125 64.359375 23.1875 75.875 
z
" id="DejaVuSans-40"/>
       <path d="M 54.890625 33.015625 
L 54.890625 0 
L 45.90625 0 
L 45.90625 32.71875 
Q 45.90625 40.484375 42.875 44.328125 
Q 39.84375 48.1875 33.796875 48.1875 
Q 26.515625 48.1875 22.3125 43.546875 
Q 18.109375 38.921875 18.109375 30.90625 
L 18.109375 0 
L 9.078125 0 
L 9.078125 75.984375 
L 18.109375 75.984375 
L 18.109375 46.1875 
Q 21.34375 51.125 25.703125 53.5625 
Q 30.078125 56 35.796875 56 
Q 45.21875 56 50.046875 50.171875 
Q 54.890625 44.34375 54.890625 33.015625 
z
" id="DejaVuSans-104"/>
       <path d="M 8.015625 75.875 
L 15.828125 75.875 
Q 23.140625 64.359375 26.78125 53.3125 
Q 30.421875 42.28125 30.421875 31.390625 
Q 30.421875 20.453125 26.78125 9.375 
Q 23.140625 -1.703125 15.828125 -13.1875 
L 8.015625 -13.1875 
Q 14.5 -2 17.703125 9.0625 
Q 20.90625 20.125 20.90625 31.390625 
Q 20.90625 42.671875 17.703125 53.65625 
Q 14.5 64.65625 8.015625 75.875 
z
" id="DejaVuSans-41"/>
      </defs>
      <use xlink:href="#DejaVuSans-116"/>
      <use x="39.208984" xlink:href="#DejaVuSans-105"/>
      <use x="66.992188" xlink:href="#DejaVuSans-109"/>
      <use x="164.404297" xlink:href="#DejaVuSans-101"/>
      <use x="225.927734" xlink:href="#DejaVuSans-32"/>
      <use x="257.714844" xlink:href="#DejaVuSans-40"/>
      <use x="296.728516" xlink:href="#DejaVuSans-104"/>
      <use x="360.107422" xlink:href="#DejaVuSans-41"/>
     </g>
    </g>
   </g>
   <g id="matplotlib.axis_2">
    <g id="ytick_1">
     <g id="line2d_10">
      <defs>
       <path d="M 0 0 
L -3.5 0 
" id="ma7c7d157a9" style="stroke:#000000;stroke-width:0.8;"/>
      </defs>
      <g>
       <use style="stroke:#000000;stroke-width:0.8;" x="47.72" xlink:href="#ma7c7d157a9" y="276.269287"/>
      </g>
     </g>
     <g id="text_11">
      <!-- 0.0 -->
      <g transform="translate(24.816875 280.068505)scale(0.1 -0.1)">
       <defs>
        <path d="M 10.6875 12.40625 
L 21 12.40625 
L 21 0 
L 10.6875 0 
z
" id="DejaVuSans-46"/>
       </defs>
       <use xlink:href="#DejaVuSans-48"/>
       <use x="63.623047" xlink:href="#DejaVuSans-46"/>
       <use x="95.410156" xlink:href="#DejaVuSans-48"/>
      </g>
     </g>
    </g>
    <g id="ytick_2">
     <g id="line2d_11">
      <g>
       <use style="stroke:#000000;stroke-width:0.8;" x="47.72" xlink:href="#ma7c7d157a9" y="241.42529"/>
      </g>
     </g>
     <g id="text_12">
      <!-- 0.1 -->
      <g transform="translate(24.816875 245.224509)scale(0.1 -0.1)">
       <use xlink:href="#DejaVuSans-48"/>
       <use x="63.623047" xlink:href="#DejaVuSans-46"/>
       <use x="95.410156" xlink:href="#DejaVuSans-49"/>
      </g>
     </g>
    </g>
    <g id="ytick_3">
     <g id="line2d_12">
      <g>
       <use style="stroke:#000000;stroke-width:0.8;" x="47.72" xlink:href="#ma7c7d157a9" y="206.581293"/>
      </g>
     </g>
     <g id="text_13">
      <!-- 0.2 -->
      <g transform="translate(24.816875 210.380512)scale(0.1 -0.1)">
       <use xlink:href="#DejaVuSans-48"/>
       <use x="63.623047" xlink:href="#DejaVuSans-46"/>
       <use x="95.410156" xlink:href="#DejaVuSans-50"/>
      </g>
     </g>
    </g>
    <g id="ytick_4">
     <g id="line2d_13">
      <g>
       <use style="stroke:#000000;stroke-width:0.8;" x="47.72" xlink:href="#ma7c7d157a9" y="171.737296"/>
      </g>
     </g>
     <g id="text_14">
      <!-- 0.3 -->
      <g transform="translate(24.816875 175.536515)scale(0.1 -0.1)">
       <use xlink:href="#DejaVuSans-48"/>
       <use x="63.623047" xlink:href="#DejaVuSans-46"/>
       <use x="95.410156" xlink:href="#DejaVuSans-51"/>
      </g>
     </g>
    </g>
    <g id="ytick_5">
     <g id="line2d_14">
      <g>
       <use style="stroke:#000000;stroke-width:0.8;" x="47.72" xlink:href="#ma7c7d157a9" y="136.8933"/>
      </g>
     </g>
     <g id="text_15">
      <!-- 0.4 -->
      <g transform="translate(24.816875 140.692518)scale(0.1 -0.1)">
       <use xlink:href="#DejaVuSans-48"/>
       <use x="63.623047" xlink:href="#DejaVuSans-46"/>
       <use x="95.410156" xlink:href="#DejaVuSans-52"/>
      </g>
     </g>
    </g>
    <g id="ytick_6">
     <g id="line2d_15">
      <g>
       <use style="stroke:#000000;stroke-width:0.8;" x="47.72" xlink:href="#ma7c7d157a9" y="102.049303"/>
      </g>
     </g>
     <g id="text_16">
      <!-- 0.5 -->
      <g transform="translate(24.816875 105.848522)scale(0.1 -0.1)">
       <use xlink:href="#DejaVuSans-48"/>
       <use x="63.623047" xlink:href="#DejaVuSans-46"/>
       <use x="95.410156" xlink:href="#DejaVuSans-53"/>
      </g>
     </g>
    </g>
    <g id="ytick_7">
     <g id="line2d_16">
      <g>
       <use style="stroke:#000000;stroke-width:0.8;" x="47.72" xlink:href="#ma7c7d157a9" y="67.205306"/>
      </g>
     </g>
     <g id="text_17">
      <!-- 0.6 -->
      <g transform="translate(24.816875 71.004525)scale(0.1 -0.1)">
       <use xlink:href="#DejaVuSans-48"/>
       <use x="63.623047" xlink:href="#DejaVuSans-46"/>
       <use x="95.410156" xlink:href="#DejaVuSans-54"/>
      </g>
     </g>
    </g>
    <g id="text_18">
     <!-- brightness -->
     <g transform="translate(18.737188 196.958802)rotate(-90)scale(0.1 -0.1)">
      <defs>
       <path d="M 48.6875 27.296875 
Q 48.6875 37.203125 44.609375 42.84375 
Q 40.53125 48.484375 33.40625 48.484375 
Q 26.265625 48.484375 22.1875 42.84375 
Q 18.109375 37.203125 18.109375 27.296875 
Q 18.109375 17.390625 22.1875 11.75 
Q 26.265625 6.109375 33.40625 6.109375 
Q 40.53125 6.109375 44.609375 11.75 
Q 48.6875 17.390625 48.6875 27.296875 
z
M 18.109375 46.390625 
Q 20.953125 51.265625 25.265625 53.625 
Q 29.59375 56 35.59375 56 
Q 45.5625 56 51.78125 48.09375 
Q 58.015625 40.1875 58.015625 27.296875 
Q 58.015625 14.40625 51.78125 6.484375 
Q 45.5625 -1.421875 35.59375 -1.421875 
Q 29.59375 -1.421875 25.265625 0.953125 
Q 20.953125 3.328125 18.109375 8.203125 
L 18.109375 0 
L 9.078125 0 
L 9.078125 75.984375 
L 18.109375 75.984375 
z
" id="DejaVuSans-98"/>
       <path d="M 41.109375 46.296875 
Q 39.59375 47.171875 37.8125 47.578125 
Q 36.03125 48 33.890625 48 
Q 26.265625 48 22.1875 43.046875 
Q 18.109375 38.09375 18.109375 28.8125 
L 18.109375 0 
L 9.078125 0 
L 9.078125 54.6875 
L 18.109375 54.6875 
L 18.109375 46.1875 
Q 20.953125 51.171875 25.484375 53.578125 
Q 30.03125 56 36.53125 56 
Q 37.453125 56 38.578125 55.875 
Q 39.703125 55.765625 41.0625 55.515625 
z
" id="DejaVuSans-114"/>
       <path d="M 45.40625 27.984375 
Q 45.40625 37.75 41.375 43.109375 
Q 37.359375 48.484375 30.078125 48.484375 
Q 22.859375 48.484375 18.828125 43.109375 
Q 14.796875 37.75 14.796875 27.984375 
Q 14.796875 18.265625 18.828125 12.890625 
Q 22.859375 7.515625 30.078125 7.515625 
Q 37.359375 7.515625 41.375 12.890625 
Q 45.40625 18.265625 45.40625 27.984375 
z
M 54.390625 6.78125 
Q 54.390625 -7.171875 48.1875 -13.984375 
Q 42 -20.796875 29.203125 -20.796875 
Q 24.46875 -20.796875 20.265625 -20.09375 
Q 16.0625 -19.390625 12.109375 -17.921875 
L 12.109375 -9.1875 
Q 16.0625 -11.328125 19.921875 -12.34375 
Q 23.78125 -13.375 27.78125 -13.375 
Q 36.625 -13.375 41.015625 -8.765625 
Q 45.40625 -4.15625 45.40625 5.171875 
L 45.40625 9.625 
Q 42.625 4.78125 38.28125 2.390625 
Q 33.9375 0 27.875 0 
Q 17.828125 0 11.671875 7.65625 
Q 5.515625 15.328125 5.515625 27.984375 
Q 5.515625 40.671875 11.671875 48.328125 
Q 17.828125 56 27.875 56 
Q 33.9375 56 38.28125 53.609375 
Q 42.625 51.21875 45.40625 46.390625 
L 45.40625 54.6875 
L 54.390625 54.6875 
z
" id="DejaVuSans-103"/>
       <path d="M 54.890625 33.015625 
L 54.890625 0 
L 45.90625 0 
L 45.90625 32.71875 
Q 45.90625 40.484375 42.875 44.328125 
Q 39.84375 48.1875 33.796875 48.1875 
Q 26.515625 48.1875 22.3125 43.546875 
Q 18.109375 38.921875 18.109375 30.90625 
L 18.109375 0 
L 9.078125 0 
L 9.078125 54.6875 
L 18.109375 54.6875 
L 18.109375 46.1875 
Q 21.34375 51.125 25.703125 53.5625 
Q 30.078125 56 35.796875 56 
Q 45.21875 56 50.046875 50.171875 
Q 54.890625 44.34375 54.890625 33.015625 
z
" id="DejaVuSans-110"/>
       <path d="M 44.28125 53.078125 
L 44.28125 44.578125 
Q 40.484375 46.53125 36.375 47.5 
Q 32.28125 48.484375 27.875 48.484375 
Q 21.1875 48.484375 17.84375 46.4375 
Q 14.5 44.390625 14.5 40.28125 
Q 14.5 37.15625 16.890625 35.375 
Q 19.28125 33.59375 26.515625 31.984375 
L 29.59375 31.296875 
Q 39.15625 29.25 43.1875 25.515625 
Q 47.21875 21.78125 47.21875 15.09375 
Q 47.21875 7.46875 41.1875 3.015625 
Q 35.15625 -1.421875 24.609375 -1.421875 
Q 20.21875 -1.421875 15.453125 -0.5625 
Q 10.6875 0.296875 5.421875 2 
L 5.421875 11.28125 
Q 10.40625 8.6875 15.234375 7.390625 
Q 20.0625 6.109375 24.8125 6.109375 
Q 31.15625 6.109375 34.5625 8.28125 
Q 37.984375 10.453125 37.984375 14.40625 
Q 37.984375 18.0625 35.515625 20.015625 
Q 33.0625 21.96875 24.703125 23.78125 
L 21.578125 24.515625 
Q 13.234375 26.265625 9.515625 29.90625 
Q 5.8125 33.546875 5.8125 39.890625 
Q 5.8125 47.609375 11.28125 51.796875 
Q 16.75 56 26.8125 56 
Q 31.78125 56 36.171875 55.265625 
Q 40.578125 54.546875 44.28125 53.078125 
z
" id="DejaVuSans-115"/>
      </defs>
      <use xlink:href="#DejaVuSans-98"/>
      <use x="63.476562" xlink:href="#DejaVuSans-114"/>
      <use x="104.589844" xlink:href="#DejaVuSans-105"/>
      <use x="132.373047" xlink:href="#DejaVuSans-103"/>
      <use x="195.849609" xlink:href="#DejaVuSans-104"/>
      <use x="259.228516" xlink:href="#DejaVuSans-116"/>
      <use x="298.4375" xlink:href="#DejaVuSans-110"/>
      <use x="361.816406" xlink:href="#DejaVuSans-101"/>
      <use x="423.339844" xlink:href="#DejaVuSans-115"/>
      <use x="475.439453" xlink:href="#DejaVuSans-115"/>
     </g>
    </g>
   </g>
   <g id="line2d_17">
    <path clip-path="url(#p80caaf1415)" d="M 66.005455 278.93863 
L 68.262918 276.370314 
L 70.520382 270.534499 
L 72.777845 267.31663 
L 75.035309 263.803253 
L 77.292772 261.917423 
L 79.550236 258.607899 
L 81.807699 255.741723 
L 84.065163 249.030307 
L 86.322626 238.85196 
L 90.837553 205.468078 
L 97.609944 153.368388 
L 99.867407 141.380095 
L 102.124871 128.424897 
L 104.382334 116.647082 
L 108.897262 96.997533 
L 111.154725 88.324249 
L 113.412189 81.173271 
L 117.927116 70.275797 
L 120.184579 68.096571 
L 124.699506 66.201494 
L 126.95697 67.157558 
L 129.214433 69.543614 
L 131.471897 74.146434 
L 133.72936 78.459416 
L 135.986824 83.378765 
L 138.244287 88.892362 
L 140.501751 93.419131 
L 142.759214 99.900895 
L 145.016678 103.197671 
L 147.274141 109.169797 
L 149.531605 114.294954 
L 151.789068 117.777895 
L 154.046532 122.104125 
L 156.303996 125.335288 
L 158.561459 129.028228 
L 163.076386 135.633469 
L 165.33385 138.101028 
L 167.591313 141.391437 
L 169.848777 143.284046 
L 176.621167 153.513793 
L 178.878631 156.359993 
L 181.136094 158.053066 
L 183.393558 161.812665 
L 185.651021 164.609514 
L 187.908485 166.868307 
L 190.165948 169.59696 
L 192.423412 173.095053 
L 194.680875 175.717024 
L 196.938339 178.621488 
L 199.195802 180.701215 
L 201.453266 182.383989 
L 203.71073 186.135523 
L 205.968193 187.986855 
L 208.225657 191.277632 
L 210.48312 192.178004 
L 212.740584 195.832381 
L 214.998047 197.863399 
L 219.512974 203.387042 
L 221.770438 204.714555 
L 224.027901 208.480229 
L 226.285365 210.635838 
L 228.542828 212.550043 
L 230.800292 213.992862 
L 233.057755 216.529313 
L 235.315219 218.619732 
L 237.572682 220.486765 
L 239.830146 222.037103 
L 242.087609 223.157921 
L 244.345073 226.366077 
L 246.602536 227.169402 
L 248.86 229.981663 
L 251.117464 230.137718 
L 253.374927 232.827448 
L 255.632391 232.989113 
L 257.889854 236.609045 
L 260.147318 235.939459 
L 262.404781 238.479158 
L 264.662245 239.195799 
L 266.919708 241.567882 
L 269.177172 242.777779 
L 271.434635 246.96636 
L 273.692099 247.229452 
L 275.949562 251.338002 
L 278.207026 250.490551 
L 280.464489 252.067983 
L 282.721953 253.854162 
L 284.979416 253.593338 
L 287.23688 255.521148 
L 289.494343 255.92586 
L 291.751807 256.869688 
L 294.00927 254.799647 
L 296.266734 257.530904 
L 298.524198 256.363137 
L 300.781661 256.719204 
L 303.039125 258.864037 
L 305.296588 258.16394 
L 307.554052 258.164803 
L 309.811515 258.922223 
L 312.068979 258.694953 
L 314.326442 257.392594 
L 316.583906 257.221546 
L 318.841369 255.149149 
L 321.098833 256.972983 
L 323.356296 255.718991 
L 325.61376 254.657605 
L 327.871223 255.823468 
L 330.128687 255.066273 
L 332.38615 254.819077 
L 334.643614 254.278083 
L 336.901077 253.275569 
L 339.158541 252.641794 
L 341.416004 251.083759 
L 343.673468 250.9014 
L 345.930932 247.055786 
L 348.188395 249.581099 
L 350.445859 246.975216 
L 352.703322 247.929884 
L 354.960786 247.609885 
L 357.218249 247.486186 
L 361.733176 245.052952 
L 363.99064 245.673831 
L 368.505567 244.873633 
L 370.76303 245.337597 
L 373.020494 244.075058 
L 375.277957 243.761059 
L 379.792884 242.023975 
L 382.050348 240.918659 
L 384.307811 241.097315 
L 386.565275 240.725447 
L 388.822738 239.542266 
L 391.080202 239.910841 
L 393.337666 238.949547 
L 395.595129 237.708784 
L 397.852593 239.033841 
L 400.110056 237.98138 
L 402.36752 236.29722 
L 404.624983 237.021152 
L 406.882447 235.882045 
L 409.13991 235.274999 
L 411.397374 234.9013 
L 413.654837 233.14136 
L 415.912301 233.545692 
L 418.169764 235.146281 
L 420.427228 234.084424 
L 424.942155 233.268308 
L 427.199618 232.203493 
L 429.457082 232.381793 
L 431.714545 230.958468 
L 431.714545 230.958468 
" style="fill:none;stroke:#1f77b4;stroke-linecap:square;stroke-width:1.5;"/>
   </g>
   <g id="line2d_18">
    <path clip-path="url(#p80caaf1415)" d="M 66.005455 283.261758 
L 68.262918 278.513773 
L 70.520382 269.996745 
L 72.777845 268.084282 
L 75.035309 269.111607 
L 77.292772 265.916748 
L 79.550236 263.714993 
L 81.807699 260.496445 
L 84.065163 254.287416 
L 86.322626 247.57992 
L 88.58009 235.316353 
L 90.837553 221.143007 
L 93.095017 208.139303 
L 95.35248 193.144357 
L 97.609944 179.585444 
L 102.124871 156.006141 
L 108.897262 126.41108 
L 111.154725 119.257499 
L 113.412189 113.046681 
L 115.669652 107.770667 
L 117.927116 103.304206 
L 120.184579 100.3092 
L 122.442043 97.906785 
L 124.699506 95.697676 
L 126.95697 94.549219 
L 129.214433 93.161602 
L 131.471897 94.325736 
L 133.72936 94.257326 
L 135.986824 94.960784 
L 138.244287 96.396745 
L 140.501751 98.255868 
L 142.759214 101.364496 
L 145.016678 102.806984 
L 147.274141 105.916974 
L 149.531605 108.719995 
L 151.789068 110.956422 
L 154.046532 111.83935 
L 156.303996 114.286236 
L 158.561459 116.408411 
L 160.818923 118.226356 
L 163.076386 119.663171 
L 165.33385 120.662372 
L 167.591313 122.216365 
L 169.848777 122.12105 
L 172.10624 123.655138 
L 174.363704 125.655185 
L 176.621167 127.199107 
L 178.878631 128.45283 
L 181.136094 127.856829 
L 183.393558 130.604068 
L 185.651021 132.477364 
L 187.908485 133.141195 
L 190.165948 134.038732 
L 192.423412 136.647276 
L 194.680875 138.559193 
L 196.938339 140.013904 
L 199.195802 141.267074 
L 201.453266 142.391973 
L 203.71073 145.755617 
L 205.968193 145.743397 
L 208.225657 148.368959 
L 210.48312 148.716229 
L 212.740584 151.189442 
L 214.998047 153.480152 
L 217.255511 156.197033 
L 219.512974 157.101836 
L 221.770438 160.221235 
L 224.027901 164.46707 
L 226.285365 166.053934 
L 228.542828 167.248107 
L 230.800292 169.083063 
L 233.057755 171.170868 
L 235.315219 173.706071 
L 237.572682 177.229766 
L 242.087609 179.655211 
L 244.345073 183.48431 
L 246.602536 185.133333 
L 248.86 186.258462 
L 251.117464 189.344555 
L 253.374927 191.651078 
L 255.632391 192.066021 
L 257.889854 195.937563 
L 260.147318 196.255408 
L 262.404781 198.963051 
L 264.662245 200.323492 
L 271.434635 207.629265 
L 273.692099 207.925777 
L 275.949562 212.055207 
L 278.207026 212.372489 
L 280.464489 215.484967 
L 282.721953 217.616217 
L 284.979416 219.142084 
L 287.23688 220.261894 
L 289.494343 221.804275 
L 291.751807 223.874129 
L 294.00927 223.658826 
L 296.266734 227.064229 
L 298.524198 226.379405 
L 300.781661 229.138501 
L 305.296588 232.833549 
L 307.554052 232.981173 
L 309.811515 235.11104 
L 312.068979 236.184402 
L 314.326442 235.69598 
L 316.583906 237.012001 
L 318.841369 240.37809 
L 321.098833 243.218782 
L 323.356296 242.988764 
L 325.61376 242.591909 
L 327.871223 246.041384 
L 332.38615 245.897643 
L 336.901077 251.194696 
L 339.158541 250.236626 
L 341.416004 250.655734 
L 343.673468 251.993812 
L 345.930932 251.340231 
L 348.188395 253.325385 
L 350.445859 252.940043 
L 352.703322 255.336946 
L 354.960786 256.709776 
L 357.218249 257.671452 
L 359.475713 257.029653 
L 361.733176 256.039038 
L 363.99064 257.971148 
L 366.248103 259.122411 
L 368.505567 258.863314 
L 370.76303 259.469746 
L 373.020494 259.186163 
L 377.535421 259.706385 
L 379.792884 259.40935 
L 382.050348 258.46122 
L 384.307811 260.714204 
L 386.565275 259.241569 
L 388.822738 259.164468 
L 391.080202 260.085339 
L 393.337666 258.079156 
L 395.595129 256.79465 
L 397.852593 257.966156 
L 400.110056 257.21882 
L 402.36752 255.633849 
L 404.624983 257.417237 
L 406.882447 255.660773 
L 409.13991 255.334208 
L 411.397374 255.234225 
L 413.654837 253.288678 
L 415.912301 252.997371 
L 418.169764 254.486609 
L 420.427228 254.544335 
L 422.684691 252.981894 
L 424.942155 253.702934 
L 427.199618 252.377339 
L 429.457082 253.358817 
L 431.714545 251.160704 
L 431.714545 251.160704 
" style="fill:none;stroke:#ff7f0e;stroke-linecap:square;stroke-width:1.5;"/>
   </g>
   <g id="line2d_19">
    <path clip-path="url(#p80caaf1415)" d="M 124.699506 90.747584 
L 124.699506 40.185635 
" style="fill:none;stroke:#1f77b4;stroke-linecap:square;stroke-width:1.5;"/>
   </g>
   <g id="line2d_20">
    <path clip-path="url(#p80caaf1415)" d="M 305.296588 290.334224 
L 305.296588 250.416896 
" style="fill:none;stroke:#1f77b4;stroke-linecap:square;stroke-width:1.5;"/>
   </g>
   <g id="patch_3">
    <path d="M 47.72 303.64 
L 47.72 37.52448 
" style="fill:none;stroke:#000000;stroke-linecap:square;stroke-linejoin:miter;stroke-width:0.8;"/>
   </g>
   <g id="patch_4">
    <path d="M 47.72 303.64 
L 450 303.64 
" style="fill:none;stroke:#000000;stroke-linecap:square;stroke-linejoin:miter;stroke-width:0.8;"/>
   </g>
   <g id="text_19">
    <!-- 13h -->
    <g style="fill:#1f77b4;" transform="translate(118.027631 34.863325)scale(0.07 -0.07)">
     <use xlink:href="#DejaVuSans-49"/>
     <use x="63.623047" xlink:href="#DejaVuSans-51"/>
     <use x="127.246094" xlink:href="#DejaVuSans-104"/>
    </g>
   </g>
   <g id="text_20">
    <!-- 53h -->
    <g style="fill:#1f77b4;" transform="translate(291.952838 300.978845)scale(0.07 -0.07)">
     <use xlink:href="#DejaVuSans-53"/>
     <use x="63.623047" xlink:href="#DejaVuSans-51"/>
     <use x="127.246094" xlink:href="#DejaVuSans-104"/>
    </g>
   </g>
   <g id="text_21">
    <!-- Growth pattern -->
    <g transform="translate(203.193437 20.879859)scale(0.12 -0.12)">
     <defs>
      <path d="M 59.515625 10.40625 
L 59.515625 29.984375 
L 43.40625 29.984375 
L 43.40625 38.09375 
L 69.28125 38.09375 
L 69.28125 6.78125 
Q 63.578125 2.734375 56.6875 0.65625 
Q 49.8125 -1.421875 42 -1.421875 
Q 24.90625 -1.421875 15.25 8.5625 
Q 5.609375 18.5625 5.609375 36.375 
Q 5.609375 54.25 15.25 64.234375 
Q 24.90625 74.21875 42 74.21875 
Q 49.125 74.21875 55.546875 72.453125 
Q 61.96875 70.703125 67.390625 67.28125 
L 67.390625 56.78125 
Q 61.921875 61.421875 55.765625 63.765625 
Q 49.609375 66.109375 42.828125 66.109375 
Q 29.4375 66.109375 22.71875 58.640625 
Q 16.015625 51.171875 16.015625 36.375 
Q 16.015625 21.625 22.71875 14.15625 
Q 29.4375 6.6875 42.828125 6.6875 
Q 48.046875 6.6875 52.140625 7.59375 
Q 56.25 8.5 59.515625 10.40625 
z
" id="DejaVuSans-71"/>
      <path d="M 30.609375 48.390625 
Q 23.390625 48.390625 19.1875 42.75 
Q 14.984375 37.109375 14.984375 27.296875 
Q 14.984375 17.484375 19.15625 11.84375 
Q 23.34375 6.203125 30.609375 6.203125 
Q 37.796875 6.203125 41.984375 11.859375 
Q 46.1875 17.53125 46.1875 27.296875 
Q 46.1875 37.015625 41.984375 42.703125 
Q 37.796875 48.390625 30.609375 48.390625 
z
M 30.609375 56 
Q 42.328125 56 49.015625 48.375 
Q 55.71875 40.765625 55.71875 27.296875 
Q 55.71875 13.875 49.015625 6.21875 
Q 42.328125 -1.421875 30.609375 -1.421875 
Q 18.84375 -1.421875 12.171875 6.21875 
Q 5.515625 13.875 5.515625 27.296875 
Q 5.515625 40.765625 12.171875 48.375 
Q 18.84375 56 30.609375 56 
z
" id="DejaVuSans-111"/>
      <path d="M 4.203125 54.6875 
L 13.1875 54.6875 
L 24.421875 12.015625 
L 35.59375 54.6875 
L 46.1875 54.6875 
L 57.421875 12.015625 
L 68.609375 54.6875 
L 77.59375 54.6875 
L 63.28125 0 
L 52.6875 0 
L 40.921875 44.828125 
L 29.109375 0 
L 18.5 0 
z
" id="DejaVuSans-119"/>
      <path d="M 18.109375 8.203125 
L 18.109375 -20.796875 
L 9.078125 -20.796875 
L 9.078125 54.6875 
L 18.109375 54.6875 
L 18.109375 46.390625 
Q 20.953125 51.265625 25.265625 53.625 
Q 29.59375 56 35.59375 56 
Q 45.5625 56 51.78125 48.09375 
Q 58.015625 40.1875 58.015625 27.296875 
Q 58.015625 14.40625 51.78125 6.484375 
Q 45.5625 -1.421875 35.59375 -1.421875 
Q 29.59375 -1.421875 25.265625 0.953125 
Q 20.953125 3.328125 18.109375 8.203125 
z
M 48.6875 27.296875 
Q 48.6875 37.203125 44.609375 42.84375 
Q 40.53125 48.484375 33.40625 48.484375 
Q 26.265625 48.484375 22.1875 42.84375 
Q 18.109375 37.203125 18.109375 27.296875 
Q 18.109375 17.390625 22.1875 11.75 
Q 26.265625 6.109375 33.40625 6.109375 
Q 40.53125 6.109375 44.609375 11.75 
Q 48.6875 17.390625 48.6875 27.296875 
z
" id="DejaVuSans-112"/>
      <path d="M 34.28125 27.484375 
Q 23.390625 27.484375 19.1875 25 
Q 14.984375 22.515625 14.984375 16.5 
Q 14.984375 11.71875 18.140625 8.90625 
Q 21.296875 6.109375 26.703125 6.109375 
Q 34.1875 6.109375 38.703125 11.40625 
Q 43.21875 16.703125 43.21875 25.484375 
L 43.21875 27.484375 
z
M 52.203125 31.203125 
L 52.203125 0 
L 43.21875 0 
L 43.21875 8.296875 
Q 40.140625 3.328125 35.546875 0.953125 
Q 30.953125 -1.421875 24.3125 -1.421875 
Q 15.921875 -1.421875 10.953125 3.296875 
Q 6 8.015625 6 15.921875 
Q 6 25.140625 12.171875 29.828125 
Q 18.359375 34.515625 30.609375 34.515625 
L 43.21875 34.515625 
L 43.21875 35.40625 
Q 43.21875 41.609375 39.140625 45 
Q 35.0625 48.390625 27.6875 48.390625 
Q 23 48.390625 18.546875 47.265625 
Q 14.109375 46.140625 10.015625 43.890625 
L 10.015625 52.203125 
Q 14.9375 54.109375 19.578125 55.046875 
Q 24.21875 56 28.609375 56 
Q 40.484375 56 46.34375 49.84375 
Q 52.203125 43.703125 52.203125 31.203125 
z
" id="DejaVuSans-97"/>
     </defs>
     <use xlink:href="#DejaVuSans-71"/>
     <use x="77.490234" xlink:href="#DejaVuSans-114"/>
     <use x="116.353516" xlink:href="#DejaVuSans-111"/>
     <use x="177.535156" xlink:href="#DejaVuSans-119"/>
     <use x="259.322266" xlink:href="#DejaVuSans-116"/>
     <use x="298.53125" xlink:href="#DejaVuSans-104"/>
     <use x="361.910156" xlink:href="#DejaVuSans-32"/>
     <use x="393.697266" xlink:href="#DejaVuSans-112"/>
     <use x="457.173828" xlink:href="#DejaVuSans-97"/>
     <use x="518.453125" xlink:href="#DejaVuSans-116"/>
     <use x="557.662109" xlink:href="#DejaVuSans-116"/>
     <use x="596.871094" xlink:href="#DejaVuSans-101"/>
     <use x="658.394531" xlink:href="#DejaVuSans-114"/>
     <use x="697.757812" xlink:href="#DejaVuSans-110"/>
    </g>
   </g>
   <g id="legend_1">
    <g id="patch_5">
     <path d="M 369.43875 55.66698 
L 444.4 55.66698 
Q 446 55.66698 446 54.06698 
L 446 43.12448 
Q 446 41.52448 444.4 41.52448 
L 369.43875 41.52448 
Q 367.83875 41.52448 367.83875 43.12448 
L 367.83875 54.06698 
Q 367.83875 55.66698 369.43875 55.66698 
z
" style="fill:#ffffff;opacity:0.3;stroke:#cccccc;stroke-linejoin:miter;"/>
    </g>
    <g id="line2d_21">
     <path d="M 371.03875 48.00323 
L 387.03875 48.00323 
" style="fill:none;stroke:#1f77b4;stroke-linecap:square;stroke-width:1.5;"/>
    </g>
    <g id="line2d_22"/>
    <g id="text_22">
     <!-- A -->
     <g transform="translate(393.43875 50.80323)scale(0.08 -0.08)">
      <defs>
       <path d="M 34.1875 63.1875 
L 20.796875 26.90625 
L 47.609375 26.90625 
z
M 28.609375 72.90625 
L 39.796875 72.90625 
L 67.578125 0 
L 57.328125 0 
L 50.6875 18.703125 
L 17.828125 18.703125 
L 11.1875 0 
L 0.78125 0 
z
" id="DejaVuSans-65"/>
      </defs>
      <use xlink:href="#DejaVuSans-65"/>
     </g>
    </g>
    <g id="line2d_23">
     <path d="M 414.91125 48.00323 
L 430.91125 48.00323 
" style="fill:none;stroke:#ff7f0e;stroke-linecap:square;stroke-width:1.5;"/>
    </g>
    <g id="line2d_24"/>
    <g id="text_23">
     <!-- B -->
     <g transform="translate(437.31125 50.80323)scale(0.08 -0.08)">
      <defs>
       <path d="M 19.671875 34.8125 
L 19.671875 8.109375 
L 35.5 8.109375 
Q 43.453125 8.109375 47.28125 11.40625 
Q 51.125 14.703125 51.125 21.484375 
Q 51.125 28.328125 47.28125 31.5625 
Q 43.453125 34.8125 35.5 34.8125 
z
M 19.671875 64.796875 
L 19.671875 42.828125 
L 34.28125 42.828125 
Q 41.5 42.828125 45.03125 45.53125 
Q 48.578125 48.25 48.578125 53.8125 
Q 48.578125 59.328125 45.03125 62.0625 
Q 41.5 64.796875 34.28125 64.796875 
z
M 9.8125 72.90625 
L 35.015625 72.90625 
Q 46.296875 72.90625 52.390625 68.21875 
Q 58.5 63.53125 58.5 54.890625 
Q 58.5 48.1875 55.375 44.234375 
Q 52.25 40.28125 46.1875 39.3125 
Q 53.46875 37.75 57.5 32.78125 
Q 61.53125 27.828125 61.53125 20.40625 
Q 61.53125 10.640625 54.890625 5.3125 
Q 48.25 0 35.984375 0 
L 9.8125 0 
z
" id="DejaVuSans-66"/>
      </defs>
      <use xlink:href="#DejaVuSans-66"/>
     </g>
    </g>
   </g>
  </g>
 </g>
 <defs>
  <clipPath id="p80caaf1415">
   <rect height="266.11552" width="402.28" x="47.72" y="37.52448"/>
  </clipPath>
 </defs>
</svg>
