<?xml version="1.0" encoding="utf-8" standalone="no"?>
<!DOCTYPE svg PUBLIC "-//W3C//DTD SVG 1.1//EN"
  "http://www.w3.org/Graphics/SVG/1.1/DTD/svg11.dtd">
<!-- Created with matplotlib (https://matplotlib.org/) -->
<svg height="345.6pt" version="1.1" viewBox="0 0 460.8 345.6" width="460.8pt" xmlns="http://www.w3.org/2000/svg" xmlns:xlink="http://www.w3.org/1999/xlink">
 <metadata>
  <rdf:RDF xmlns:cc="http://creativecommons.org/ns#" xmlns:dc="http://purl.org/dc/elements/1.1/" xmlns:rdf="http://www.w3.org/1999/02/22-rdf-syntax-ns#">
   <cc:Work>
    <dc:type rdf:resource="http://purl.org/dc/dcmitype/StillImage"/>
    <dc:date>2021-02-17T10:16:48.717246</dc:date>
    <dc:format>image/svg+xml</dc:format>
    <dc:creator>
     <cc:Agent>
      <dc:title>Matplotlib v3.3.4, https://matplotlib.org/</dc:title>
     </cc:Agent>
    </dc:creator>
   </cc:Work>
  </rdf:RDF>
 </metadata>
 <defs>
  <style type="text/css">*{stroke-linecap:butt;stroke-linejoin:round;}</style>
 </defs>
 <g id="figure_1">
  <g id="patch_1">
   <path d="M 0 345.6 
L 460.8 345.6 
L 460.8 0 
L 0 0 
z
" style="fill:#ffffff;"/>
  </g>
  <g id="axes_1">
   <g id="patch_2">
    <path d="M 56 303.64 
L 450 303.64 
L 450 37.52448 
L 56 37.52448 
z
" style="fill:#ffffff;"/>
   </g>
   <g id="matplotlib.axis_1">
    <g id="xtick_1">
     <g id="line2d_1">
      <defs>
       <path d="M 0 0 
L 0 3.5 
" id="m40456a4311" style="stroke:#000000;stroke-width:0.8;"/>
      </defs>
      <g>
       <use style="stroke:#000000;stroke-width:0.8;" x="73.909091" xlink:href="#m40456a4311" y="303.64"/>
      </g>
     </g>
     <g id="text_1">
      <!-- 0 -->
      <g transform="translate(70.727841 318.238437)scale(0.1 -0.1)">
       <defs>
        <path d="M 31.78125 66.40625 
Q 24.171875 66.40625 20.328125 58.90625 
Q 16.5 51.421875 16.5 36.375 
Q 16.5 21.390625 20.328125 13.890625 
Q 24.171875 6.390625 31.78125 6.390625 
Q 39.453125 6.390625 43.28125 13.890625 
Q 47.125 21.390625 47.125 36.375 
Q 47.125 51.421875 43.28125 58.90625 
Q 39.453125 66.40625 31.78125 66.40625 
z
M 31.78125 74.21875 
Q 44.046875 74.21875 50.515625 64.515625 
Q 56.984375 54.828125 56.984375 36.375 
Q 56.984375 17.96875 50.515625 8.265625 
Q 44.046875 -1.421875 31.78125 -1.421875 
Q 19.53125 -1.421875 13.0625 8.265625 
Q 6.59375 17.96875 6.59375 36.375 
Q 6.59375 54.828125 13.0625 64.515625 
Q 19.53125 74.21875 31.78125 74.21875 
z
" id="DejaVuSans-48"/>
       </defs>
       <use xlink:href="#DejaVuSans-48"/>
      </g>
     </g>
    </g>
    <g id="xtick_2">
     <g id="line2d_2">
      <g>
       <use style="stroke:#000000;stroke-width:0.8;" x="118.681818" xlink:href="#m40456a4311" y="303.64"/>
      </g>
     </g>
     <g id="text_2">
      <!-- 9 -->
      <g transform="translate(115.500568 318.238437)scale(0.1 -0.1)">
       <defs>
        <path d="M 10.984375 1.515625 
L 10.984375 10.5 
Q 14.703125 8.734375 18.5 7.8125 
Q 22.3125 6.890625 25.984375 6.890625 
Q 35.75 6.890625 40.890625 13.453125 
Q 46.046875 20.015625 46.78125 33.40625 
Q 43.953125 29.203125 39.59375 26.953125 
Q 35.25 24.703125 29.984375 24.703125 
Q 19.046875 24.703125 12.671875 31.3125 
Q 6.296875 37.9375 6.296875 49.421875 
Q 6.296875 60.640625 12.9375 67.421875 
Q 19.578125 74.21875 30.609375 74.21875 
Q 43.265625 74.21875 49.921875 64.515625 
Q 56.59375 54.828125 56.59375 36.375 
Q 56.59375 19.140625 48.40625 8.859375 
Q 40.234375 -1.421875 26.421875 -1.421875 
Q 22.703125 -1.421875 18.890625 -0.6875 
Q 15.09375 0.046875 10.984375 1.515625 
z
M 30.609375 32.421875 
Q 37.25 32.421875 41.125 36.953125 
Q 45.015625 41.5 45.015625 49.421875 
Q 45.015625 57.28125 41.125 61.84375 
Q 37.25 66.40625 30.609375 66.40625 
Q 23.96875 66.40625 20.09375 61.84375 
Q 16.21875 57.28125 16.21875 49.421875 
Q 16.21875 41.5 20.09375 36.953125 
Q 23.96875 32.421875 30.609375 32.421875 
z
" id="DejaVuSans-57"/>
       </defs>
       <use xlink:href="#DejaVuSans-57"/>
      </g>
     </g>
    </g>
    <g id="xtick_3">
     <g id="line2d_3">
      <g>
       <use style="stroke:#000000;stroke-width:0.8;" x="163.454545" xlink:href="#m40456a4311" y="303.64"/>
      </g>
     </g>
     <g id="text_3">
      <!-- 18 -->
      <g transform="translate(157.092045 318.238437)scale(0.1 -0.1)">
       <defs>
        <path d="M 12.40625 8.296875 
L 28.515625 8.296875 
L 28.515625 63.921875 
L 10.984375 60.40625 
L 10.984375 69.390625 
L 28.421875 72.90625 
L 38.28125 72.90625 
L 38.28125 8.296875 
L 54.390625 8.296875 
L 54.390625 0 
L 12.40625 0 
z
" id="DejaVuSans-49"/>
        <path d="M 31.78125 34.625 
Q 24.75 34.625 20.71875 30.859375 
Q 16.703125 27.09375 16.703125 20.515625 
Q 16.703125 13.921875 20.71875 10.15625 
Q 24.75 6.390625 31.78125 6.390625 
Q 38.8125 6.390625 42.859375 10.171875 
Q 46.921875 13.96875 46.921875 20.515625 
Q 46.921875 27.09375 42.890625 30.859375 
Q 38.875 34.625 31.78125 34.625 
z
M 21.921875 38.8125 
Q 15.578125 40.375 12.03125 44.71875 
Q 8.5 49.078125 8.5 55.328125 
Q 8.5 64.0625 14.71875 69.140625 
Q 20.953125 74.21875 31.78125 74.21875 
Q 42.671875 74.21875 48.875 69.140625 
Q 55.078125 64.0625 55.078125 55.328125 
Q 55.078125 49.078125 51.53125 44.71875 
Q 48 40.375 41.703125 38.8125 
Q 48.828125 37.15625 52.796875 32.3125 
Q 56.78125 27.484375 56.78125 20.515625 
Q 56.78125 9.90625 50.3125 4.234375 
Q 43.84375 -1.421875 31.78125 -1.421875 
Q 19.734375 -1.421875 13.25 4.234375 
Q 6.78125 9.90625 6.78125 20.515625 
Q 6.78125 27.484375 10.78125 32.3125 
Q 14.796875 37.15625 21.921875 38.8125 
z
M 18.3125 54.390625 
Q 18.3125 48.734375 21.84375 45.5625 
Q 25.390625 42.390625 31.78125 42.390625 
Q 38.140625 42.390625 41.71875 45.5625 
Q 45.3125 48.734375 45.3125 54.390625 
Q 45.3125 60.0625 41.71875 63.234375 
Q 38.140625 66.40625 31.78125 66.40625 
Q 25.390625 66.40625 21.84375 63.234375 
Q 18.3125 60.0625 18.3125 54.390625 
z
" id="DejaVuSans-56"/>
       </defs>
       <use xlink:href="#DejaVuSans-49"/>
       <use x="63.623047" xlink:href="#DejaVuSans-56"/>
      </g>
     </g>
    </g>
    <g id="xtick_4">
     <g id="line2d_4">
      <g>
       <use style="stroke:#000000;stroke-width:0.8;" x="208.227273" xlink:href="#m40456a4311" y="303.64"/>
      </g>
     </g>
     <g id="text_4">
      <!-- 27 -->
      <g transform="translate(201.864773 318.238437)scale(0.1 -0.1)">
       <defs>
        <path d="M 19.1875 8.296875 
L 53.609375 8.296875 
L 53.609375 0 
L 7.328125 0 
L 7.328125 8.296875 
Q 12.9375 14.109375 22.625 23.890625 
Q 32.328125 33.6875 34.8125 36.53125 
Q 39.546875 41.84375 41.421875 45.53125 
Q 43.3125 49.21875 43.3125 52.78125 
Q 43.3125 58.59375 39.234375 62.25 
Q 35.15625 65.921875 28.609375 65.921875 
Q 23.96875 65.921875 18.8125 64.3125 
Q 13.671875 62.703125 7.8125 59.421875 
L 7.8125 69.390625 
Q 13.765625 71.78125 18.9375 73 
Q 24.125 74.21875 28.421875 74.21875 
Q 39.75 74.21875 46.484375 68.546875 
Q 53.21875 62.890625 53.21875 53.421875 
Q 53.21875 48.921875 51.53125 44.890625 
Q 49.859375 40.875 45.40625 35.40625 
Q 44.1875 33.984375 37.640625 27.21875 
Q 31.109375 20.453125 19.1875 8.296875 
z
" id="DejaVuSans-50"/>
        <path d="M 8.203125 72.90625 
L 55.078125 72.90625 
L 55.078125 68.703125 
L 28.609375 0 
L 18.3125 0 
L 43.21875 64.59375 
L 8.203125 64.59375 
z
" id="DejaVuSans-55"/>
       </defs>
       <use xlink:href="#DejaVuSans-50"/>
       <use x="63.623047" xlink:href="#DejaVuSans-55"/>
      </g>
     </g>
    </g>
    <g id="xtick_5">
     <g id="line2d_5">
      <g>
       <use style="stroke:#000000;stroke-width:0.8;" x="253" xlink:href="#m40456a4311" y="303.64"/>
      </g>
     </g>
     <g id="text_5">
      <!-- 36 -->
      <g transform="translate(246.6375 318.238437)scale(0.1 -0.1)">
       <defs>
        <path d="M 40.578125 39.3125 
Q 47.65625 37.796875 51.625 33 
Q 55.609375 28.21875 55.609375 21.1875 
Q 55.609375 10.40625 48.1875 4.484375 
Q 40.765625 -1.421875 27.09375 -1.421875 
Q 22.515625 -1.421875 17.65625 -0.515625 
Q 12.796875 0.390625 7.625 2.203125 
L 7.625 11.71875 
Q 11.71875 9.328125 16.59375 8.109375 
Q 21.484375 6.890625 26.8125 6.890625 
Q 36.078125 6.890625 40.9375 10.546875 
Q 45.796875 14.203125 45.796875 21.1875 
Q 45.796875 27.640625 41.28125 31.265625 
Q 36.765625 34.90625 28.71875 34.90625 
L 20.21875 34.90625 
L 20.21875 43.015625 
L 29.109375 43.015625 
Q 36.375 43.015625 40.234375 45.921875 
Q 44.09375 48.828125 44.09375 54.296875 
Q 44.09375 59.90625 40.109375 62.90625 
Q 36.140625 65.921875 28.71875 65.921875 
Q 24.65625 65.921875 20.015625 65.03125 
Q 15.375 64.15625 9.8125 62.3125 
L 9.8125 71.09375 
Q 15.4375 72.65625 20.34375 73.4375 
Q 25.25 74.21875 29.59375 74.21875 
Q 40.828125 74.21875 47.359375 69.109375 
Q 53.90625 64.015625 53.90625 55.328125 
Q 53.90625 49.265625 50.4375 45.09375 
Q 46.96875 40.921875 40.578125 39.3125 
z
" id="DejaVuSans-51"/>
        <path d="M 33.015625 40.375 
Q 26.375 40.375 22.484375 35.828125 
Q 18.609375 31.296875 18.609375 23.390625 
Q 18.609375 15.53125 22.484375 10.953125 
Q 26.375 6.390625 33.015625 6.390625 
Q 39.65625 6.390625 43.53125 10.953125 
Q 47.40625 15.53125 47.40625 23.390625 
Q 47.40625 31.296875 43.53125 35.828125 
Q 39.65625 40.375 33.015625 40.375 
z
M 52.59375 71.296875 
L 52.59375 62.3125 
Q 48.875 64.0625 45.09375 64.984375 
Q 41.3125 65.921875 37.59375 65.921875 
Q 27.828125 65.921875 22.671875 59.328125 
Q 17.53125 52.734375 16.796875 39.40625 
Q 19.671875 43.65625 24.015625 45.921875 
Q 28.375 48.1875 33.59375 48.1875 
Q 44.578125 48.1875 50.953125 41.515625 
Q 57.328125 34.859375 57.328125 23.390625 
Q 57.328125 12.15625 50.6875 5.359375 
Q 44.046875 -1.421875 33.015625 -1.421875 
Q 20.359375 -1.421875 13.671875 8.265625 
Q 6.984375 17.96875 6.984375 36.375 
Q 6.984375 53.65625 15.1875 63.9375 
Q 23.390625 74.21875 37.203125 74.21875 
Q 40.921875 74.21875 44.703125 73.484375 
Q 48.484375 72.75 52.59375 71.296875 
z
" id="DejaVuSans-54"/>
       </defs>
       <use xlink:href="#DejaVuSans-51"/>
       <use x="63.623047" xlink:href="#DejaVuSans-54"/>
      </g>
     </g>
    </g>
    <g id="xtick_6">
     <g id="line2d_6">
      <g>
       <use style="stroke:#000000;stroke-width:0.8;" x="297.772727" xlink:href="#m40456a4311" y="303.64"/>
      </g>
     </g>
     <g id="text_6">
      <!-- 45 -->
      <g transform="translate(291.410227 318.238437)scale(0.1 -0.1)">
       <defs>
        <path d="M 37.796875 64.3125 
L 12.890625 25.390625 
L 37.796875 25.390625 
z
M 35.203125 72.90625 
L 47.609375 72.90625 
L 47.609375 25.390625 
L 58.015625 25.390625 
L 58.015625 17.1875 
L 47.609375 17.1875 
L 47.609375 0 
L 37.796875 0 
L 37.796875 17.1875 
L 4.890625 17.1875 
L 4.890625 26.703125 
z
" id="DejaVuSans-52"/>
        <path d="M 10.796875 72.90625 
L 49.515625 72.90625 
L 49.515625 64.59375 
L 19.828125 64.59375 
L 19.828125 46.734375 
Q 21.96875 47.46875 24.109375 47.828125 
Q 26.265625 48.1875 28.421875 48.1875 
Q 40.625 48.1875 47.75 41.5 
Q 54.890625 34.8125 54.890625 23.390625 
Q 54.890625 11.625 47.5625 5.09375 
Q 40.234375 -1.421875 26.90625 -1.421875 
Q 22.3125 -1.421875 17.546875 -0.640625 
Q 12.796875 0.140625 7.71875 1.703125 
L 7.71875 11.625 
Q 12.109375 9.234375 16.796875 8.0625 
Q 21.484375 6.890625 26.703125 6.890625 
Q 35.15625 6.890625 40.078125 11.328125 
Q 45.015625 15.765625 45.015625 23.390625 
Q 45.015625 31 40.078125 35.4375 
Q 35.15625 39.890625 26.703125 39.890625 
Q 22.75 39.890625 18.8125 39.015625 
Q 14.890625 38.140625 10.796875 36.28125 
z
" id="DejaVuSans-53"/>
       </defs>
       <use xlink:href="#DejaVuSans-52"/>
       <use x="63.623047" xlink:href="#DejaVuSans-53"/>
      </g>
     </g>
    </g>
    <g id="xtick_7">
     <g id="line2d_7">
      <g>
       <use style="stroke:#000000;stroke-width:0.8;" x="342.545455" xlink:href="#m40456a4311" y="303.64"/>
      </g>
     </g>
     <g id="text_7">
      <!-- 54 -->
      <g transform="translate(336.182955 318.238437)scale(0.1 -0.1)">
       <use xlink:href="#DejaVuSans-53"/>
       <use x="63.623047" xlink:href="#DejaVuSans-52"/>
      </g>
     </g>
    </g>
    <g id="xtick_8">
     <g id="line2d_8">
      <g>
       <use style="stroke:#000000;stroke-width:0.8;" x="387.318182" xlink:href="#m40456a4311" y="303.64"/>
      </g>
     </g>
     <g id="text_8">
      <!-- 63 -->
      <g transform="translate(380.955682 318.238437)scale(0.1 -0.1)">
       <use xlink:href="#DejaVuSans-54"/>
       <use x="63.623047" xlink:href="#DejaVuSans-51"/>
      </g>
     </g>
    </g>
    <g id="text_9">
     <!-- time (h) -->
     <g transform="translate(233.044531 331.916562)scale(0.1 -0.1)">
      <defs>
       <path d="M 18.3125 70.21875 
L 18.3125 54.6875 
L 36.8125 54.6875 
L 36.8125 47.703125 
L 18.3125 47.703125 
L 18.3125 18.015625 
Q 18.3125 11.328125 20.140625 9.421875 
Q 21.96875 7.515625 27.59375 7.515625 
L 36.8125 7.515625 
L 36.8125 0 
L 27.59375 0 
Q 17.1875 0 13.234375 3.875 
Q 9.28125 7.765625 9.28125 18.015625 
L 9.28125 47.703125 
L 2.6875 47.703125 
L 2.6875 54.6875 
L 9.28125 54.6875 
L 9.28125 70.21875 
z
" id="DejaVuSans-116"/>
       <path d="M 9.421875 54.6875 
L 18.40625 54.6875 
L 18.40625 0 
L 9.421875 0 
z
M 9.421875 75.984375 
L 18.40625 75.984375 
L 18.40625 64.59375 
L 9.421875 64.59375 
z
" id="DejaVuSans-105"/>
       <path d="M 52 44.1875 
Q 55.375 50.25 60.0625 53.125 
Q 64.75 56 71.09375 56 
Q 79.640625 56 84.28125 50.015625 
Q 88.921875 44.046875 88.921875 33.015625 
L 88.921875 0 
L 79.890625 0 
L 79.890625 32.71875 
Q 79.890625 40.578125 77.09375 44.375 
Q 74.3125 48.1875 68.609375 48.1875 
Q 61.625 48.1875 57.5625 43.546875 
Q 53.515625 38.921875 53.515625 30.90625 
L 53.515625 0 
L 44.484375 0 
L 44.484375 32.71875 
Q 44.484375 40.625 41.703125 44.40625 
Q 38.921875 48.1875 33.109375 48.1875 
Q 26.21875 48.1875 22.15625 43.53125 
Q 18.109375 38.875 18.109375 30.90625 
L 18.109375 0 
L 9.078125 0 
L 9.078125 54.6875 
L 18.109375 54.6875 
L 18.109375 46.1875 
Q 21.1875 51.21875 25.484375 53.609375 
Q 29.78125 56 35.6875 56 
Q 41.65625 56 45.828125 52.96875 
Q 50 49.953125 52 44.1875 
z
" id="DejaVuSans-109"/>
       <path d="M 56.203125 29.59375 
L 56.203125 25.203125 
L 14.890625 25.203125 
Q 15.484375 15.921875 20.484375 11.0625 
Q 25.484375 6.203125 34.421875 6.203125 
Q 39.59375 6.203125 44.453125 7.46875 
Q 49.3125 8.734375 54.109375 11.28125 
L 54.109375 2.78125 
Q 49.265625 0.734375 44.1875 -0.34375 
Q 39.109375 -1.421875 33.890625 -1.421875 
Q 20.796875 -1.421875 13.15625 6.1875 
Q 5.515625 13.8125 5.515625 26.8125 
Q 5.515625 40.234375 12.765625 48.109375 
Q 20.015625 56 32.328125 56 
Q 43.359375 56 49.78125 48.890625 
Q 56.203125 41.796875 56.203125 29.59375 
z
M 47.21875 32.234375 
Q 47.125 39.59375 43.09375 43.984375 
Q 39.0625 48.390625 32.421875 48.390625 
Q 24.90625 48.390625 20.390625 44.140625 
Q 15.875 39.890625 15.1875 32.171875 
z
" id="DejaVuSans-101"/>
       <path id="DejaVuSans-32"/>
       <path d="M 31 75.875 
Q 24.46875 64.65625 21.28125 53.65625 
Q 18.109375 42.671875 18.109375 31.390625 
Q 18.109375 20.125 21.3125 9.0625 
Q 24.515625 -2 31 -13.1875 
L 23.1875 -13.1875 
Q 15.875 -1.703125 12.234375 9.375 
Q 8.59375 20.453125 8.59375 31.390625 
Q 8.59375 42.28125 12.203125 53.3125 
Q 15.828125 64.359375 23.1875 75.875 
z
" id="DejaVuSans-40"/>
       <path d="M 54.890625 33.015625 
L 54.890625 0 
L 45.90625 0 
L 45.90625 32.71875 
Q 45.90625 40.484375 42.875 44.328125 
Q 39.84375 48.1875 33.796875 48.1875 
Q 26.515625 48.1875 22.3125 43.546875 
Q 18.109375 38.921875 18.109375 30.90625 
L 18.109375 0 
L 9.078125 0 
L 9.078125 75.984375 
L 18.109375 75.984375 
L 18.109375 46.1875 
Q 21.34375 51.125 25.703125 53.5625 
Q 30.078125 56 35.796875 56 
Q 45.21875 56 50.046875 50.171875 
Q 54.890625 44.34375 54.890625 33.015625 
z
" id="DejaVuSans-104"/>
       <path d="M 8.015625 75.875 
L 15.828125 75.875 
Q 23.140625 64.359375 26.78125 53.3125 
Q 30.421875 42.28125 30.421875 31.390625 
Q 30.421875 20.453125 26.78125 9.375 
Q 23.140625 -1.703125 15.828125 -13.1875 
L 8.015625 -13.1875 
Q 14.5 -2 17.703125 9.0625 
Q 20.90625 20.125 20.90625 31.390625 
Q 20.90625 42.671875 17.703125 53.65625 
Q 14.5 64.65625 8.015625 75.875 
z
" id="DejaVuSans-41"/>
      </defs>
      <use xlink:href="#DejaVuSans-116"/>
      <use x="39.208984" xlink:href="#DejaVuSans-105"/>
      <use x="66.992188" xlink:href="#DejaVuSans-109"/>
      <use x="164.404297" xlink:href="#DejaVuSans-101"/>
      <use x="225.927734" xlink:href="#DejaVuSans-32"/>
      <use x="257.714844" xlink:href="#DejaVuSans-40"/>
      <use x="296.728516" xlink:href="#DejaVuSans-104"/>
      <use x="360.107422" xlink:href="#DejaVuSans-41"/>
     </g>
    </g>
   </g>
   <g id="matplotlib.axis_2">
    <g id="ytick_1">
     <g id="line2d_9">
      <defs>
       <path d="M 0 0 
L -3.5 0 
" id="mb639f1314f" style="stroke:#000000;stroke-width:0.8;"/>
      </defs>
      <g>
       <use style="stroke:#000000;stroke-width:0.8;" x="56" xlink:href="#mb639f1314f" y="285.142054"/>
      </g>
     </g>
     <g id="text_10">
      <!-- −0.2 -->
      <g transform="translate(24.717188 288.941273)scale(0.1 -0.1)">
       <defs>
        <path d="M 10.59375 35.5 
L 73.1875 35.5 
L 73.1875 27.203125 
L 10.59375 27.203125 
z
" id="DejaVuSans-8722"/>
        <path d="M 10.6875 12.40625 
L 21 12.40625 
L 21 0 
L 10.6875 0 
z
" id="DejaVuSans-46"/>
       </defs>
       <use xlink:href="#DejaVuSans-8722"/>
       <use x="83.789062" xlink:href="#DejaVuSans-48"/>
       <use x="147.412109" xlink:href="#DejaVuSans-46"/>
       <use x="179.199219" xlink:href="#DejaVuSans-50"/>
      </g>
     </g>
    </g>
    <g id="ytick_2">
     <g id="line2d_10">
      <g>
       <use style="stroke:#000000;stroke-width:0.8;" x="56" xlink:href="#mb639f1314f" y="245.888485"/>
      </g>
     </g>
     <g id="text_11">
      <!-- 0.0 -->
      <g transform="translate(33.096875 249.687704)scale(0.1 -0.1)">
       <use xlink:href="#DejaVuSans-48"/>
       <use x="63.623047" xlink:href="#DejaVuSans-46"/>
       <use x="95.410156" xlink:href="#DejaVuSans-48"/>
      </g>
     </g>
    </g>
    <g id="ytick_3">
     <g id="line2d_11">
      <g>
       <use style="stroke:#000000;stroke-width:0.8;" x="56" xlink:href="#mb639f1314f" y="206.634916"/>
      </g>
     </g>
     <g id="text_12">
      <!-- 0.2 -->
      <g transform="translate(33.096875 210.434135)scale(0.1 -0.1)">
       <use xlink:href="#DejaVuSans-48"/>
       <use x="63.623047" xlink:href="#DejaVuSans-46"/>
       <use x="95.410156" xlink:href="#DejaVuSans-50"/>
      </g>
     </g>
    </g>
    <g id="ytick_4">
     <g id="line2d_12">
      <g>
       <use style="stroke:#000000;stroke-width:0.8;" x="56" xlink:href="#mb639f1314f" y="167.381347"/>
      </g>
     </g>
     <g id="text_13">
      <!-- 0.4 -->
      <g transform="translate(33.096875 171.180566)scale(0.1 -0.1)">
       <use xlink:href="#DejaVuSans-48"/>
       <use x="63.623047" xlink:href="#DejaVuSans-46"/>
       <use x="95.410156" xlink:href="#DejaVuSans-52"/>
      </g>
     </g>
    </g>
    <g id="ytick_5">
     <g id="line2d_13">
      <g>
       <use style="stroke:#000000;stroke-width:0.8;" x="56" xlink:href="#mb639f1314f" y="128.127778"/>
      </g>
     </g>
     <g id="text_14">
      <!-- 0.6 -->
      <g transform="translate(33.096875 131.926997)scale(0.1 -0.1)">
       <use xlink:href="#DejaVuSans-48"/>
       <use x="63.623047" xlink:href="#DejaVuSans-46"/>
       <use x="95.410156" xlink:href="#DejaVuSans-54"/>
      </g>
     </g>
    </g>
    <g id="ytick_6">
     <g id="line2d_14">
      <g>
       <use style="stroke:#000000;stroke-width:0.8;" x="56" xlink:href="#mb639f1314f" y="88.874209"/>
      </g>
     </g>
     <g id="text_15">
      <!-- 0.8 -->
      <g transform="translate(33.096875 92.673428)scale(0.1 -0.1)">
       <use xlink:href="#DejaVuSans-48"/>
       <use x="63.623047" xlink:href="#DejaVuSans-46"/>
       <use x="95.410156" xlink:href="#DejaVuSans-56"/>
      </g>
     </g>
    </g>
    <g id="ytick_7">
     <g id="line2d_15">
      <g>
       <use style="stroke:#000000;stroke-width:0.8;" x="56" xlink:href="#mb639f1314f" y="49.62064"/>
      </g>
     </g>
     <g id="text_16">
      <!-- 1.0 -->
      <g transform="translate(33.096875 53.419859)scale(0.1 -0.1)">
       <use xlink:href="#DejaVuSans-49"/>
       <use x="63.623047" xlink:href="#DejaVuSans-46"/>
       <use x="95.410156" xlink:href="#DejaVuSans-48"/>
      </g>
     </g>
    </g>
    <g id="text_17">
     <!-- brightness -->
     <g transform="translate(18.6375 196.958802)rotate(-90)scale(0.1 -0.1)">
      <defs>
       <path d="M 48.6875 27.296875 
Q 48.6875 37.203125 44.609375 42.84375 
Q 40.53125 48.484375 33.40625 48.484375 
Q 26.265625 48.484375 22.1875 42.84375 
Q 18.109375 37.203125 18.109375 27.296875 
Q 18.109375 17.390625 22.1875 11.75 
Q 26.265625 6.109375 33.40625 6.109375 
Q 40.53125 6.109375 44.609375 11.75 
Q 48.6875 17.390625 48.6875 27.296875 
z
M 18.109375 46.390625 
Q 20.953125 51.265625 25.265625 53.625 
Q 29.59375 56 35.59375 56 
Q 45.5625 56 51.78125 48.09375 
Q 58.015625 40.1875 58.015625 27.296875 
Q 58.015625 14.40625 51.78125 6.484375 
Q 45.5625 -1.421875 35.59375 -1.421875 
Q 29.59375 -1.421875 25.265625 0.953125 
Q 20.953125 3.328125 18.109375 8.203125 
L 18.109375 0 
L 9.078125 0 
L 9.078125 75.984375 
L 18.109375 75.984375 
z
" id="DejaVuSans-98"/>
       <path d="M 41.109375 46.296875 
Q 39.59375 47.171875 37.8125 47.578125 
Q 36.03125 48 33.890625 48 
Q 26.265625 48 22.1875 43.046875 
Q 18.109375 38.09375 18.109375 28.8125 
L 18.109375 0 
L 9.078125 0 
L 9.078125 54.6875 
L 18.109375 54.6875 
L 18.109375 46.1875 
Q 20.953125 51.171875 25.484375 53.578125 
Q 30.03125 56 36.53125 56 
Q 37.453125 56 38.578125 55.875 
Q 39.703125 55.765625 41.0625 55.515625 
z
" id="DejaVuSans-114"/>
       <path d="M 45.40625 27.984375 
Q 45.40625 37.75 41.375 43.109375 
Q 37.359375 48.484375 30.078125 48.484375 
Q 22.859375 48.484375 18.828125 43.109375 
Q 14.796875 37.75 14.796875 27.984375 
Q 14.796875 18.265625 18.828125 12.890625 
Q 22.859375 7.515625 30.078125 7.515625 
Q 37.359375 7.515625 41.375 12.890625 
Q 45.40625 18.265625 45.40625 27.984375 
z
M 54.390625 6.78125 
Q 54.390625 -7.171875 48.1875 -13.984375 
Q 42 -20.796875 29.203125 -20.796875 
Q 24.46875 -20.796875 20.265625 -20.09375 
Q 16.0625 -19.390625 12.109375 -17.921875 
L 12.109375 -9.1875 
Q 16.0625 -11.328125 19.921875 -12.34375 
Q 23.78125 -13.375 27.78125 -13.375 
Q 36.625 -13.375 41.015625 -8.765625 
Q 45.40625 -4.15625 45.40625 5.171875 
L 45.40625 9.625 
Q 42.625 4.78125 38.28125 2.390625 
Q 33.9375 0 27.875 0 
Q 17.828125 0 11.671875 7.65625 
Q 5.515625 15.328125 5.515625 27.984375 
Q 5.515625 40.671875 11.671875 48.328125 
Q 17.828125 56 27.875 56 
Q 33.9375 56 38.28125 53.609375 
Q 42.625 51.21875 45.40625 46.390625 
L 45.40625 54.6875 
L 54.390625 54.6875 
z
" id="DejaVuSans-103"/>
       <path d="M 54.890625 33.015625 
L 54.890625 0 
L 45.90625 0 
L 45.90625 32.71875 
Q 45.90625 40.484375 42.875 44.328125 
Q 39.84375 48.1875 33.796875 48.1875 
Q 26.515625 48.1875 22.3125 43.546875 
Q 18.109375 38.921875 18.109375 30.90625 
L 18.109375 0 
L 9.078125 0 
L 9.078125 54.6875 
L 18.109375 54.6875 
L 18.109375 46.1875 
Q 21.34375 51.125 25.703125 53.5625 
Q 30.078125 56 35.796875 56 
Q 45.21875 56 50.046875 50.171875 
Q 54.890625 44.34375 54.890625 33.015625 
z
" id="DejaVuSans-110"/>
       <path d="M 44.28125 53.078125 
L 44.28125 44.578125 
Q 40.484375 46.53125 36.375 47.5 
Q 32.28125 48.484375 27.875 48.484375 
Q 21.1875 48.484375 17.84375 46.4375 
Q 14.5 44.390625 14.5 40.28125 
Q 14.5 37.15625 16.890625 35.375 
Q 19.28125 33.59375 26.515625 31.984375 
L 29.59375 31.296875 
Q 39.15625 29.25 43.1875 25.515625 
Q 47.21875 21.78125 47.21875 15.09375 
Q 47.21875 7.46875 41.1875 3.015625 
Q 35.15625 -1.421875 24.609375 -1.421875 
Q 20.21875 -1.421875 15.453125 -0.5625 
Q 10.6875 0.296875 5.421875 2 
L 5.421875 11.28125 
Q 10.40625 8.6875 15.234375 7.390625 
Q 20.0625 6.109375 24.8125 6.109375 
Q 31.15625 6.109375 34.5625 8.28125 
Q 37.984375 10.453125 37.984375 14.40625 
Q 37.984375 18.0625 35.515625 20.015625 
Q 33.0625 21.96875 24.703125 23.78125 
L 21.578125 24.515625 
Q 13.234375 26.265625 9.515625 29.90625 
Q 5.8125 33.546875 5.8125 39.890625 
Q 5.8125 47.609375 11.28125 51.796875 
Q 16.75 56 26.8125 56 
Q 31.78125 56 36.171875 55.265625 
Q 40.578125 54.546875 44.28125 53.078125 
z
" id="DejaVuSans-115"/>
      </defs>
      <use xlink:href="#DejaVuSans-98"/>
      <use x="63.476562" xlink:href="#DejaVuSans-114"/>
      <use x="104.589844" xlink:href="#DejaVuSans-105"/>
      <use x="132.373047" xlink:href="#DejaVuSans-103"/>
      <use x="195.849609" xlink:href="#DejaVuSans-104"/>
      <use x="259.228516" xlink:href="#DejaVuSans-116"/>
      <use x="298.4375" xlink:href="#DejaVuSans-110"/>
      <use x="361.816406" xlink:href="#DejaVuSans-101"/>
      <use x="423.339844" xlink:href="#DejaVuSans-115"/>
      <use x="475.439453" xlink:href="#DejaVuSans-115"/>
     </g>
    </g>
   </g>
   <g id="line2d_16">
    <path clip-path="url(#pc5a13fbcbb)" d="M 73.909091 235.737327 
L 76.396465 236.607074 
L 78.883838 235.446935 
L 81.371212 235.608086 
L 83.858586 236.087815 
L 86.34596 234.582263 
L 88.833333 236.106352 
L 91.320707 234.629744 
L 93.808081 234.566841 
L 96.295455 235.188114 
L 98.782828 234.237439 
L 101.270202 235.39708 
L 103.757576 234.457521 
L 106.244949 234.582226 
L 111.219697 234.235031 
L 113.707071 234.361696 
L 116.194444 232.811783 
L 118.681818 233.630855 
L 121.169192 233.606008 
L 123.656566 233.37475 
L 126.143939 232.940411 
L 128.631313 232.742184 
L 131.118687 231.586564 
L 133.606061 230.612131 
L 136.093434 229.875619 
L 138.580808 228.913993 
L 141.068182 229.23633 
L 143.555556 227.132563 
L 146.042929 226.929845 
L 148.530303 227.271995 
L 151.017677 226.971008 
L 153.505051 225.685077 
L 155.992424 225.400467 
L 158.479798 224.313239 
L 160.967172 224.138972 
L 163.454545 223.46738 
L 168.429293 222.952691 
L 170.916667 221.611332 
L 173.40404 221.241104 
L 180.866162 218.877421 
L 183.353535 218.815739 
L 185.840909 218.116392 
L 188.328283 216.158527 
L 190.815657 215.464096 
L 193.30303 213.173113 
L 195.790404 212.737849 
L 198.277778 211.16992 
L 200.765152 208.635082 
L 203.252525 207.12575 
L 205.739899 205.295281 
L 208.227273 202.026994 
L 210.714646 199.167995 
L 218.176768 189.333929 
L 220.664141 187.130143 
L 223.151515 182.732614 
L 225.638889 179.233047 
L 228.126263 174.52812 
L 238.075758 158.126467 
L 240.563131 154.648393 
L 243.050505 150.229362 
L 245.537879 145.055997 
L 248.025253 141.322069 
L 250.512626 137.201324 
L 253 134.292462 
L 255.487374 130.029922 
L 257.974747 124.631228 
L 260.462121 120.697667 
L 262.949495 115.700315 
L 265.436869 111.156858 
L 267.924242 106.259087 
L 270.411616 102.089791 
L 275.386364 92.800361 
L 280.361111 83.950502 
L 282.848485 79.35242 
L 287.823232 70.664403 
L 290.310606 67.13539 
L 292.79798 64.395414 
L 297.772727 59.974882 
L 300.260101 58.207433 
L 302.747475 57.841999 
L 305.234848 56.926954 
L 307.722222 56.636622 
L 310.209596 56.722518 
L 317.671717 57.74643 
L 320.159091 58.964047 
L 322.646465 59.978702 
L 325.133838 60.828764 
L 327.621212 62.239969 
L 330.108586 63.077059 
L 337.570707 67.076793 
L 340.058081 68.813409 
L 342.545455 69.628998 
L 345.032828 70.677347 
L 350.007576 73.267589 
L 354.982323 75.405317 
L 357.469697 75.926233 
L 359.957071 77.105394 
L 362.444444 77.024587 
L 367.419192 78.338557 
L 369.906566 79.282548 
L 372.393939 79.449885 
L 374.881313 79.982553 
L 377.368687 80.123205 
L 379.856061 80.708984 
L 382.343434 81.082833 
L 384.830808 81.308215 
L 392.292929 82.343897 
L 394.780303 82.316003 
L 397.267677 82.017228 
L 399.755051 82.613637 
L 402.242424 82.941384 
L 404.729798 82.63158 
L 407.217172 82.972503 
L 409.704545 83.153616 
L 412.191919 83.058675 
L 414.679293 83.47974 
L 417.166667 83.163698 
L 419.65404 83.392301 
L 422.141414 83.903888 
L 424.628788 83.56311 
L 427.116162 84.261868 
L 432.090909 83.998373 
L 432.090909 83.998373 
" style="fill:none;stroke:#b22222;stroke-linecap:square;stroke-width:1.5;"/>
   </g>
   <g id="line2d_17">
    <path clip-path="url(#pc5a13fbcbb)" d="M 73.909091 248.267142 
L 76.396465 249.061957 
L 78.883838 248.192587 
L 81.371212 247.864425 
L 83.858586 248.572376 
L 86.34596 248.086815 
L 88.833333 248.499823 
L 98.782828 247.739489 
L 101.270202 248.866373 
L 103.757576 247.656038 
L 106.244949 248.772128 
L 108.732323 248.158782 
L 113.707071 247.236552 
L 116.194444 246.436519 
L 121.169192 246.570019 
L 123.656566 245.766741 
L 126.143939 246.075216 
L 128.631313 245.847934 
L 133.606061 244.083924 
L 136.093434 243.219782 
L 138.580808 242.761923 
L 141.068182 241.993903 
L 143.555556 240.989415 
L 146.042929 240.722612 
L 151.017677 240.658461 
L 153.505051 239.112062 
L 155.992424 238.841283 
L 158.479798 237.932546 
L 160.967172 237.344874 
L 163.454545 238.012691 
L 168.429293 237.184836 
L 170.916667 236.252629 
L 173.40404 236.399006 
L 175.891414 236.243629 
L 178.378788 235.00442 
L 180.866162 236.212079 
L 183.353535 236.887975 
L 185.840909 236.900279 
L 188.328283 237.646587 
L 190.815657 238.186915 
L 193.30303 238.57243 
L 195.790404 238.657676 
L 198.277778 239.683257 
L 200.765152 239.14418 
L 203.252525 239.921131 
L 205.739899 240.461619 
L 208.227273 239.519206 
L 210.714646 240.469066 
L 213.20202 239.212979 
L 215.689394 238.336299 
L 218.176768 237.9359 
L 220.664141 237.2947 
L 223.151515 234.87062 
L 225.638889 233.874193 
L 228.126263 231.183849 
L 230.613636 228.181972 
L 233.10101 225.391987 
L 235.588384 222.153263 
L 240.563131 212.876363 
L 243.050505 208.567273 
L 245.537879 201.699029 
L 253 183.781992 
L 255.487374 176.576376 
L 257.974747 168.431989 
L 260.462121 161.192814 
L 262.949495 154.420036 
L 267.924242 139.402826 
L 275.386364 121.578874 
L 280.361111 110.782652 
L 282.848485 106.756783 
L 285.335859 101.883927 
L 287.823232 97.933974 
L 290.310606 94.272187 
L 292.79798 92.01273 
L 295.285354 89.437171 
L 297.772727 87.380594 
L 300.260101 85.662547 
L 302.747475 84.800647 
L 305.234848 83.560853 
L 307.722222 82.55716 
L 310.209596 81.914098 
L 312.69697 81.9095 
L 315.184343 81.404408 
L 317.671717 81.571987 
L 320.159091 82.481543 
L 322.646465 82.935179 
L 325.133838 83.616828 
L 327.621212 83.954268 
L 330.108586 84.664131 
L 332.59596 85.531703 
L 335.083333 86.168501 
L 337.570707 87.116125 
L 347.520202 90.275567 
L 350.007576 91.661177 
L 352.494949 92.607728 
L 354.982323 93.697494 
L 357.469697 94.432605 
L 359.957071 95.825673 
L 362.444444 96.31766 
L 367.419192 98.034569 
L 369.906566 99.196919 
L 372.393939 99.372076 
L 374.881313 100.389035 
L 377.368687 100.712129 
L 379.856061 101.383953 
L 382.343434 102.247279 
L 387.318182 102.593288 
L 389.805556 103.730641 
L 397.267677 104.4044 
L 399.755051 104.882768 
L 402.242424 105.658465 
L 404.729798 105.573571 
L 407.217172 106.299719 
L 409.704545 106.037092 
L 414.679293 106.511162 
L 417.166667 106.682926 
L 419.65404 106.588762 
L 422.141414 107.201036 
L 424.628788 106.444541 
L 427.116162 107.504033 
L 429.603535 107.128735 
L 432.090909 107.026845 
L 432.090909 107.026845 
" style="fill:none;stroke:#ff6347;stroke-linecap:square;stroke-width:1.5;"/>
   </g>
   <g id="line2d_18">
    <path clip-path="url(#pc5a13fbcbb)" d="M 73.909091 236.670664 
L 76.396465 237.123498 
L 78.883838 235.975094 
L 81.371212 236.174616 
L 83.858586 236.666298 
L 86.34596 235.259998 
L 88.833333 236.614942 
L 91.320707 235.138476 
L 93.808081 235.167466 
L 96.295455 235.54257 
L 98.782828 234.137488 
L 101.270202 235.625296 
L 103.757576 234.282877 
L 106.244949 234.333603 
L 108.732323 233.736217 
L 113.707071 233.05564 
L 116.194444 231.593406 
L 118.681818 231.763578 
L 121.169192 231.427131 
L 123.656566 230.80807 
L 126.143939 230.048656 
L 128.631313 229.518714 
L 131.118687 228.059644 
L 133.606061 226.799638 
L 138.580808 225.769412 
L 141.068182 225.871662 
L 143.555556 224.119383 
L 146.042929 223.521894 
L 148.530303 223.478237 
L 151.017677 223.112348 
L 153.505051 221.702891 
L 155.992424 221.459177 
L 158.479798 220.261486 
L 165.941919 218.469776 
L 168.429293 217.589996 
L 170.916667 215.95696 
L 173.40404 215.042592 
L 178.378788 211.45585 
L 180.866162 210.098826 
L 183.353535 208.492666 
L 188.328283 204.030803 
L 193.30303 198.823829 
L 195.790404 196.48316 
L 198.277778 193.497237 
L 200.765152 190.160018 
L 203.252525 187.026552 
L 205.739899 183.559765 
L 210.714646 175.873665 
L 213.20202 171.190095 
L 218.176768 162.58817 
L 220.664141 158.868599 
L 225.638889 149.421789 
L 228.126263 144.916583 
L 230.613636 139.812442 
L 233.10101 135.39796 
L 238.075758 125.542505 
L 245.537879 109.545975 
L 248.025253 103.963979 
L 255.487374 88.003418 
L 257.974747 81.81576 
L 262.949495 71.054264 
L 267.924242 61.091356 
L 270.411616 58.1068 
L 272.89899 54.494416 
L 275.386364 52.298382 
L 277.873737 50.962289 
L 280.361111 49.794242 
L 282.848485 49.62064 
L 285.335859 49.846915 
L 287.823232 50.295428 
L 290.310606 51.499514 
L 292.79798 53.410719 
L 295.285354 54.667944 
L 297.772727 56.651841 
L 300.260101 58.181234 
L 302.747475 60.355667 
L 310.209596 64.722402 
L 315.184343 67.549989 
L 317.671717 68.46972 
L 320.159091 70.222507 
L 322.646465 71.338454 
L 325.133838 71.97352 
L 327.621212 73.238762 
L 330.108586 73.892519 
L 332.59596 74.75185 
L 335.083333 75.274862 
L 337.570707 76.25438 
L 342.545455 77.419534 
L 345.032828 77.594942 
L 347.520202 78.214282 
L 350.007576 78.989355 
L 354.982323 79.734735 
L 357.469697 80.179144 
L 359.957071 80.841231 
L 362.444444 80.735035 
L 367.419192 81.332225 
L 369.906566 82.255614 
L 372.393939 82.225032 
L 374.881313 82.91448 
L 377.368687 82.92503 
L 379.856061 83.546285 
L 382.343434 84.012151 
L 384.830808 84.258014 
L 387.318182 84.715135 
L 392.292929 85.337194 
L 394.780303 85.741667 
L 397.267677 85.835094 
L 399.755051 86.302007 
L 402.242424 86.88336 
L 404.729798 86.643771 
L 407.217172 87.238824 
L 409.704545 87.684371 
L 412.191919 87.600984 
L 414.679293 88.104601 
L 417.166667 88.017251 
L 419.65404 88.299895 
L 422.141414 89.006869 
L 424.628788 88.807386 
L 427.116162 89.537691 
L 429.603535 89.768813 
L 432.090909 89.439691 
L 432.090909 89.439691 
" style="fill:none;stroke:#ffa07a;stroke-linecap:square;stroke-width:1.5;"/>
   </g>
   <g id="line2d_19">
    <path clip-path="url(#pc5a13fbcbb)" d="M 73.909091 254.766065 
L 76.396465 255.892932 
L 78.883838 254.371811 
L 81.371212 254.003509 
L 83.858586 254.957747 
L 86.34596 253.793632 
L 88.833333 254.420829 
L 91.320707 253.951387 
L 93.808081 253.793374 
L 98.782828 253.30041 
L 101.270202 254.459739 
L 103.757576 252.792573 
L 106.244949 254.374109 
L 108.732323 253.56418 
L 111.219697 252.999343 
L 113.707071 253.032267 
L 116.194444 251.316656 
L 121.169192 252.011189 
L 123.656566 251.210352 
L 126.143939 251.460753 
L 128.631313 250.914878 
L 131.118687 249.981048 
L 136.093434 248.59397 
L 138.580808 248.169255 
L 141.068182 248.134311 
L 143.555556 246.027886 
L 148.530303 246.169634 
L 151.017677 245.874474 
L 153.505051 244.515823 
L 155.992424 244.482752 
L 158.479798 244.047112 
L 160.967172 244.270207 
L 163.454545 245.849317 
L 165.941919 246.369743 
L 168.429293 247.28341 
L 170.916667 246.802284 
L 173.40404 247.544779 
L 175.891414 247.642068 
L 178.378788 245.701562 
L 180.866162 247.059403 
L 183.353535 247.280668 
L 185.840909 245.608301 
L 188.328283 244.139873 
L 190.815657 243.554568 
L 193.30303 242.033559 
L 195.790404 239.665271 
L 198.277778 239.499704 
L 200.765152 235.555531 
L 203.252525 234.827658 
L 205.739899 233.629484 
L 208.227273 229.517648 
L 210.714646 228.286899 
L 213.20202 226.278789 
L 215.689394 223.770931 
L 218.176768 221.750294 
L 220.664141 220.760962 
L 223.151515 217.468528 
L 225.638889 215.978422 
L 233.10101 207.146979 
L 235.588384 204.290098 
L 238.075758 199.919589 
L 243.050505 192.423473 
L 245.537879 186.944728 
L 250.512626 178.470939 
L 255.487374 169.362634 
L 257.974747 162.425305 
L 260.462121 157.375925 
L 262.949495 153.007266 
L 267.924242 142.133055 
L 270.411616 138.562404 
L 272.89899 133.244895 
L 275.386364 128.936712 
L 277.873737 124.983919 
L 280.361111 119.796135 
L 282.848485 117.20667 
L 285.335859 113.506781 
L 287.823232 110.485647 
L 290.310606 108.41738 
L 292.79798 106.676313 
L 295.285354 105.078474 
L 300.260101 102.907086 
L 302.747475 102.851644 
L 305.234848 101.766413 
L 310.209596 101.196612 
L 312.69697 101.842008 
L 315.184343 102.167185 
L 317.671717 103.140877 
L 320.159091 104.651073 
L 322.646465 105.570183 
L 325.133838 106.795521 
L 327.621212 108.625255 
L 332.59596 111.084339 
L 335.083333 113.111252 
L 337.570707 114.889246 
L 340.058081 116.381396 
L 342.545455 118.153482 
L 345.032828 119.329633 
L 347.520202 120.237272 
L 350.007576 122.390987 
L 352.494949 122.979391 
L 354.982323 124.440068 
L 357.469697 125.231311 
L 359.957071 126.599325 
L 362.444444 126.765973 
L 367.419192 128.000364 
L 369.906566 129.337419 
L 372.393939 129.301822 
L 374.881313 130.491922 
L 377.368687 130.824015 
L 379.856061 131.297008 
L 382.343434 131.958518 
L 384.830808 132.050744 
L 387.318182 132.67547 
L 389.805556 133.616587 
L 392.292929 133.608179 
L 397.267677 134.369364 
L 399.755051 135.337076 
L 402.242424 135.793011 
L 404.729798 135.303813 
L 409.704545 136.295614 
L 412.191919 135.791519 
L 414.679293 136.947853 
L 417.166667 136.419144 
L 419.65404 136.384691 
L 422.141414 137.566369 
L 424.628788 136.990694 
L 429.603535 137.915649 
L 432.090909 137.83554 
L 432.090909 137.83554 
" style="fill:none;stroke:#00008b;stroke-linecap:square;stroke-width:1.5;"/>
   </g>
   <g id="line2d_20">
    <path clip-path="url(#pc5a13fbcbb)" d="M 73.909091 265.391658 
L 76.396465 266.442586 
L 78.883838 265.071924 
L 81.371212 264.55299 
L 83.858586 265.379772 
L 86.34596 264.301855 
L 88.833333 265.196164 
L 91.320707 264.086942 
L 93.808081 264.231276 
L 96.295455 263.717932 
L 98.782828 263.614612 
L 101.270202 264.385189 
L 103.757576 262.945074 
L 106.244949 263.784611 
L 108.732323 263.654419 
L 111.219697 262.98893 
L 113.707071 262.874694 
L 116.194444 261.110007 
L 118.681818 261.530231 
L 121.169192 261.385187 
L 123.656566 260.594284 
L 126.143939 261.080493 
L 128.631313 260.261615 
L 131.118687 258.7572 
L 133.606061 258.176758 
L 136.093434 256.819368 
L 138.580808 256.384553 
L 141.068182 256.395445 
L 143.555556 255.521484 
L 146.042929 255.003986 
L 148.530303 255.577253 
L 151.017677 255.20782 
L 153.505051 253.567301 
L 155.992424 253.391563 
L 158.479798 252.712654 
L 160.967172 252.956843 
L 163.454545 254.237507 
L 165.941919 255.030298 
L 168.429293 257.05715 
L 170.916667 256.624786 
L 175.891414 260.065263 
L 178.378788 261.421974 
L 180.866162 265.264484 
L 183.353535 267.970343 
L 185.840909 270.855904 
L 188.328283 274.320911 
L 190.815657 276.705584 
L 193.30303 279.690314 
L 195.790404 282.357675 
L 198.277778 284.418045 
L 200.765152 284.906437 
L 203.252525 287.3422 
L 205.739899 289.301621 
L 208.227273 289.365546 
L 210.714646 291.133822 
L 213.20202 290.111861 
L 215.689394 290.648713 
L 218.176768 291.003995 
L 220.664141 291.54384 
L 223.151515 290.030145 
L 225.638889 290.066156 
L 228.126263 288.331942 
L 230.613636 286.277579 
L 233.10101 284.909809 
L 235.588384 281.811362 
L 238.075758 278.467443 
L 240.563131 274.275701 
L 243.050505 271.37765 
L 245.537879 266.016299 
L 248.025253 262.64397 
L 250.512626 257.71379 
L 253 253.233293 
L 257.974747 241.883242 
L 260.462121 236.800028 
L 265.436869 225.046366 
L 267.924242 218.528285 
L 270.411616 214.692985 
L 272.89899 209.022213 
L 277.873737 199.273355 
L 280.361111 194.969179 
L 282.848485 190.957381 
L 285.335859 186.28875 
L 287.823232 181.945717 
L 290.310606 178.170498 
L 295.285354 171.339016 
L 297.772727 168.51237 
L 300.260101 164.757584 
L 302.747475 162.212564 
L 305.234848 158.929829 
L 307.722222 155.320397 
L 310.209596 152.202475 
L 312.69697 150.219747 
L 315.184343 147.305858 
L 317.671717 145.090529 
L 320.159091 143.775621 
L 322.646465 142.136213 
L 325.133838 140.264069 
L 327.621212 138.849963 
L 330.108586 137.026618 
L 332.59596 135.907516 
L 335.083333 134.462578 
L 337.570707 133.16628 
L 340.058081 132.603526 
L 342.545455 131.04055 
L 345.032828 130.466314 
L 347.520202 129.647627 
L 350.007576 129.225853 
L 352.494949 128.428534 
L 354.982323 127.766079 
L 357.469697 127.240844 
L 359.957071 127.138651 
L 362.444444 126.332872 
L 364.931818 126.157062 
L 367.419192 125.316373 
L 369.906566 125.885742 
L 372.393939 125.085325 
L 374.881313 125.482278 
L 377.368687 125.429329 
L 382.343434 125.893571 
L 384.830808 126.116338 
L 389.805556 127.196738 
L 397.267677 127.44136 
L 402.242424 129.132719 
L 404.729798 128.451139 
L 407.217172 129.341166 
L 412.191919 129.874707 
L 414.679293 130.657542 
L 417.166667 130.462532 
L 419.65404 130.554797 
L 422.141414 131.5243 
L 424.628788 130.708086 
L 429.603535 132.031933 
L 432.090909 131.791153 
L 432.090909 131.791153 
" style="fill:none;stroke:#4169e1;stroke-linecap:square;stroke-width:1.5;"/>
   </g>
   <g id="line2d_21">
    <path clip-path="url(#pc5a13fbcbb)" d="M 73.909091 233.793341 
L 76.396465 234.077995 
L 78.883838 233.102148 
L 81.371212 232.674709 
L 83.858586 232.979767 
L 86.34596 232.797418 
L 88.833333 232.352389 
L 91.320707 232.055316 
L 96.295455 231.853092 
L 98.782828 231.57608 
L 101.270202 231.971022 
L 103.757576 231.33543 
L 106.244949 231.581268 
L 111.219697 230.547895 
L 113.707071 229.590481 
L 116.194444 228.90212 
L 118.681818 229.041741 
L 121.169192 228.720484 
L 123.656566 227.759171 
L 126.143939 228.144458 
L 128.631313 228.020435 
L 131.118687 227.007095 
L 133.606061 226.396371 
L 136.093434 225.165087 
L 138.580808 225.055316 
L 141.068182 224.770236 
L 143.555556 223.60761 
L 146.042929 223.033682 
L 148.530303 223.309267 
L 151.017677 223.040097 
L 153.505051 221.637832 
L 155.992424 221.208314 
L 158.479798 220.9361 
L 160.967172 221.185543 
L 163.454545 222.190627 
L 165.941919 223.434421 
L 168.429293 224.947389 
L 170.916667 225.887011 
L 173.40404 227.537276 
L 175.891414 228.790919 
L 178.378788 229.647994 
L 180.866162 231.614164 
L 183.353535 232.93428 
L 188.328283 234.596751 
L 190.815657 235.44773 
L 193.30303 235.690617 
L 195.790404 236.356929 
L 198.277778 236.74001 
L 200.765152 236.187808 
L 203.252525 236.20219 
L 205.739899 236.069437 
L 208.227273 234.49496 
L 210.714646 233.778795 
L 213.20202 231.323942 
L 218.176768 228.286288 
L 220.664141 226.087787 
L 223.151515 222.952355 
L 225.638889 220.498517 
L 228.126263 217.227884 
L 230.613636 213.567621 
L 233.10101 210.212065 
L 235.588384 206.301927 
L 243.050505 191.629014 
L 245.537879 185.83554 
L 248.025253 180.850496 
L 253 169.090643 
L 267.924242 131.030376 
L 270.411616 125.708786 
L 272.89899 120.113546 
L 277.873737 109.886225 
L 280.361111 105.874189 
L 282.848485 102.51006 
L 285.335859 98.920751 
L 287.823232 95.905949 
L 290.310606 94.224051 
L 295.285354 91.610582 
L 297.772727 90.986537 
L 300.260101 90.623984 
L 302.747475 91.236498 
L 305.234848 91.354694 
L 307.722222 91.656998 
L 310.209596 92.90056 
L 312.69697 94.466418 
L 315.184343 95.797722 
L 317.671717 97.648269 
L 320.159091 100.104216 
L 322.646465 102.378075 
L 325.133838 104.335721 
L 327.621212 106.701877 
L 332.59596 110.114235 
L 337.570707 113.74214 
L 340.058081 115.28324 
L 347.520202 118.821182 
L 350.007576 120.293939 
L 352.494949 121.069921 
L 354.982323 121.993222 
L 357.469697 122.773844 
L 359.957071 123.792464 
L 362.444444 124.008359 
L 364.931818 124.639877 
L 367.419192 124.784206 
L 369.906566 125.886401 
L 372.393939 125.754919 
L 374.881313 126.477217 
L 377.368687 126.474586 
L 379.856061 127.038034 
L 387.318182 127.693886 
L 389.805556 128.244262 
L 392.292929 128.0131 
L 394.780303 128.176589 
L 397.267677 128.038531 
L 399.755051 128.443219 
L 402.242424 129.074718 
L 404.729798 128.750259 
L 407.217172 129.16851 
L 409.704545 129.379276 
L 412.191919 129.311207 
L 414.679293 129.956753 
L 417.166667 129.459322 
L 419.65404 129.835332 
L 422.141414 130.556083 
L 424.628788 130.046174 
L 427.116162 130.677901 
L 429.603535 131.185143 
L 432.090909 131.013764 
L 432.090909 131.013764 
" style="fill:none;stroke:#b0c4de;stroke-linecap:square;stroke-width:1.5;"/>
   </g>
   <g id="line2d_22">
    <path clip-path="url(#pc5a13fbcbb)" d="M 193.30303 290.334224 
L 193.30303 250.416896 
" style="fill:none;stroke:#000000;stroke-linecap:square;stroke-width:1.5;"/>
   </g>
   <g id="line2d_23">
    <path clip-path="url(#pc5a13fbcbb)" d="M 322.646465 90.747584 
L 322.646465 40.185635 
" style="fill:none;stroke:#ff0000;stroke-linecap:square;stroke-width:1.5;"/>
   </g>
   <g id="patch_3">
    <path d="M 56 303.64 
L 56 37.52448 
" style="fill:none;stroke:#000000;stroke-linecap:square;stroke-linejoin:miter;stroke-width:0.8;"/>
   </g>
   <g id="patch_4">
    <path d="M 56 303.64 
L 450 303.64 
" style="fill:none;stroke:#000000;stroke-linecap:square;stroke-linejoin:miter;stroke-width:0.8;"/>
   </g>
   <g id="text_18">
    <!-- 24h -->
    <g transform="translate(179.95928 300.978845)scale(0.07 -0.07)">
     <use xlink:href="#DejaVuSans-50"/>
     <use x="63.623047" xlink:href="#DejaVuSans-52"/>
     <use x="127.246094" xlink:href="#DejaVuSans-104"/>
    </g>
   </g>
   <g id="text_19">
    <!-- 50h -->
    <g style="fill:#ff0000;" transform="translate(315.97459 34.863325)scale(0.07 -0.07)">
     <use xlink:href="#DejaVuSans-53"/>
     <use x="63.623047" xlink:href="#DejaVuSans-48"/>
     <use x="127.246094" xlink:href="#DejaVuSans-104"/>
    </g>
   </g>
   <g id="text_20">
    <!-- Growth pattern -->
    <g transform="translate(207.333438 20.879859)scale(0.12 -0.12)">
     <defs>
      <path d="M 59.515625 10.40625 
L 59.515625 29.984375 
L 43.40625 29.984375 
L 43.40625 38.09375 
L 69.28125 38.09375 
L 69.28125 6.78125 
Q 63.578125 2.734375 56.6875 0.65625 
Q 49.8125 -1.421875 42 -1.421875 
Q 24.90625 -1.421875 15.25 8.5625 
Q 5.609375 18.5625 5.609375 36.375 
Q 5.609375 54.25 15.25 64.234375 
Q 24.90625 74.21875 42 74.21875 
Q 49.125 74.21875 55.546875 72.453125 
Q 61.96875 70.703125 67.390625 67.28125 
L 67.390625 56.78125 
Q 61.921875 61.421875 55.765625 63.765625 
Q 49.609375 66.109375 42.828125 66.109375 
Q 29.4375 66.109375 22.71875 58.640625 
Q 16.015625 51.171875 16.015625 36.375 
Q 16.015625 21.625 22.71875 14.15625 
Q 29.4375 6.6875 42.828125 6.6875 
Q 48.046875 6.6875 52.140625 7.59375 
Q 56.25 8.5 59.515625 10.40625 
z
" id="DejaVuSans-71"/>
      <path d="M 30.609375 48.390625 
Q 23.390625 48.390625 19.1875 42.75 
Q 14.984375 37.109375 14.984375 27.296875 
Q 14.984375 17.484375 19.15625 11.84375 
Q 23.34375 6.203125 30.609375 6.203125 
Q 37.796875 6.203125 41.984375 11.859375 
Q 46.1875 17.53125 46.1875 27.296875 
Q 46.1875 37.015625 41.984375 42.703125 
Q 37.796875 48.390625 30.609375 48.390625 
z
M 30.609375 56 
Q 42.328125 56 49.015625 48.375 
Q 55.71875 40.765625 55.71875 27.296875 
Q 55.71875 13.875 49.015625 6.21875 
Q 42.328125 -1.421875 30.609375 -1.421875 
Q 18.84375 -1.421875 12.171875 6.21875 
Q 5.515625 13.875 5.515625 27.296875 
Q 5.515625 40.765625 12.171875 48.375 
Q 18.84375 56 30.609375 56 
z
" id="DejaVuSans-111"/>
      <path d="M 4.203125 54.6875 
L 13.1875 54.6875 
L 24.421875 12.015625 
L 35.59375 54.6875 
L 46.1875 54.6875 
L 57.421875 12.015625 
L 68.609375 54.6875 
L 77.59375 54.6875 
L 63.28125 0 
L 52.6875 0 
L 40.921875 44.828125 
L 29.109375 0 
L 18.5 0 
z
" id="DejaVuSans-119"/>
      <path d="M 18.109375 8.203125 
L 18.109375 -20.796875 
L 9.078125 -20.796875 
L 9.078125 54.6875 
L 18.109375 54.6875 
L 18.109375 46.390625 
Q 20.953125 51.265625 25.265625 53.625 
Q 29.59375 56 35.59375 56 
Q 45.5625 56 51.78125 48.09375 
Q 58.015625 40.1875 58.015625 27.296875 
Q 58.015625 14.40625 51.78125 6.484375 
Q 45.5625 -1.421875 35.59375 -1.421875 
Q 29.59375 -1.421875 25.265625 0.953125 
Q 20.953125 3.328125 18.109375 8.203125 
z
M 48.6875 27.296875 
Q 48.6875 37.203125 44.609375 42.84375 
Q 40.53125 48.484375 33.40625 48.484375 
Q 26.265625 48.484375 22.1875 42.84375 
Q 18.109375 37.203125 18.109375 27.296875 
Q 18.109375 17.390625 22.1875 11.75 
Q 26.265625 6.109375 33.40625 6.109375 
Q 40.53125 6.109375 44.609375 11.75 
Q 48.6875 17.390625 48.6875 27.296875 
z
" id="DejaVuSans-112"/>
      <path d="M 34.28125 27.484375 
Q 23.390625 27.484375 19.1875 25 
Q 14.984375 22.515625 14.984375 16.5 
Q 14.984375 11.71875 18.140625 8.90625 
Q 21.296875 6.109375 26.703125 6.109375 
Q 34.1875 6.109375 38.703125 11.40625 
Q 43.21875 16.703125 43.21875 25.484375 
L 43.21875 27.484375 
z
M 52.203125 31.203125 
L 52.203125 0 
L 43.21875 0 
L 43.21875 8.296875 
Q 40.140625 3.328125 35.546875 0.953125 
Q 30.953125 -1.421875 24.3125 -1.421875 
Q 15.921875 -1.421875 10.953125 3.296875 
Q 6 8.015625 6 15.921875 
Q 6 25.140625 12.171875 29.828125 
Q 18.359375 34.515625 30.609375 34.515625 
L 43.21875 34.515625 
L 43.21875 35.40625 
Q 43.21875 41.609375 39.140625 45 
Q 35.0625 48.390625 27.6875 48.390625 
Q 23 48.390625 18.546875 47.265625 
Q 14.109375 46.140625 10.015625 43.890625 
L 10.015625 52.203125 
Q 14.9375 54.109375 19.578125 55.046875 
Q 24.21875 56 28.609375 56 
Q 40.484375 56 46.34375 49.84375 
Q 52.203125 43.703125 52.203125 31.203125 
z
" id="DejaVuSans-97"/>
     </defs>
     <use xlink:href="#DejaVuSans-71"/>
     <use x="77.490234" xlink:href="#DejaVuSans-114"/>
     <use x="116.353516" xlink:href="#DejaVuSans-111"/>
     <use x="177.535156" xlink:href="#DejaVuSans-119"/>
     <use x="259.322266" xlink:href="#DejaVuSans-116"/>
     <use x="298.53125" xlink:href="#DejaVuSans-104"/>
     <use x="361.910156" xlink:href="#DejaVuSans-32"/>
     <use x="393.697266" xlink:href="#DejaVuSans-112"/>
     <use x="457.173828" xlink:href="#DejaVuSans-97"/>
     <use x="518.453125" xlink:href="#DejaVuSans-116"/>
     <use x="557.662109" xlink:href="#DejaVuSans-116"/>
     <use x="596.871094" xlink:href="#DejaVuSans-101"/>
     <use x="658.394531" xlink:href="#DejaVuSans-114"/>
     <use x="697.757812" xlink:href="#DejaVuSans-110"/>
    </g>
   </g>
   <g id="legend_1">
    <g id="patch_5">
     <path d="M 61.6 79.81948 
L 168.73125 79.81948 
Q 170.33125 79.81948 170.33125 78.21948 
L 170.33125 43.12448 
Q 170.33125 41.52448 168.73125 41.52448 
L 61.6 41.52448 
Q 60 41.52448 60 43.12448 
L 60 78.21948 
Q 60 79.81948 61.6 79.81948 
z
" style="fill:#ffffff;opacity:0.3;stroke:#cccccc;stroke-linejoin:miter;"/>
    </g>
    <g id="line2d_24">
     <path d="M 63.2 48.00323 
L 79.2 48.00323 
" style="fill:none;stroke:#b22222;stroke-linecap:square;stroke-width:1.5;"/>
    </g>
    <g id="line2d_25"/>
    <g id="text_21">
     <!-- A_Ctr -->
     <g transform="translate(85.6 50.80323)scale(0.08 -0.08)">
      <defs>
       <path d="M 34.1875 63.1875 
L 20.796875 26.90625 
L 47.609375 26.90625 
z
M 28.609375 72.90625 
L 39.796875 72.90625 
L 67.578125 0 
L 57.328125 0 
L 50.6875 18.703125 
L 17.828125 18.703125 
L 11.1875 0 
L 0.78125 0 
z
" id="DejaVuSans-65"/>
       <path d="M 50.984375 -16.609375 
L 50.984375 -23.578125 
L -0.984375 -23.578125 
L -0.984375 -16.609375 
z
" id="DejaVuSans-95"/>
       <path d="M 64.40625 67.28125 
L 64.40625 56.890625 
Q 59.421875 61.53125 53.78125 63.8125 
Q 48.140625 66.109375 41.796875 66.109375 
Q 29.296875 66.109375 22.65625 58.46875 
Q 16.015625 50.828125 16.015625 36.375 
Q 16.015625 21.96875 22.65625 14.328125 
Q 29.296875 6.6875 41.796875 6.6875 
Q 48.140625 6.6875 53.78125 8.984375 
Q 59.421875 11.28125 64.40625 15.921875 
L 64.40625 5.609375 
Q 59.234375 2.09375 53.4375 0.328125 
Q 47.65625 -1.421875 41.21875 -1.421875 
Q 24.65625 -1.421875 15.125 8.703125 
Q 5.609375 18.84375 5.609375 36.375 
Q 5.609375 53.953125 15.125 64.078125 
Q 24.65625 74.21875 41.21875 74.21875 
Q 47.75 74.21875 53.53125 72.484375 
Q 59.328125 70.75 64.40625 67.28125 
z
" id="DejaVuSans-67"/>
      </defs>
      <use xlink:href="#DejaVuSans-65"/>
      <use x="68.408203" xlink:href="#DejaVuSans-95"/>
      <use x="118.408203" xlink:href="#DejaVuSans-67"/>
      <use x="188.232422" xlink:href="#DejaVuSans-116"/>
      <use x="227.441406" xlink:href="#DejaVuSans-114"/>
     </g>
    </g>
    <g id="line2d_26">
     <path d="M 63.2 59.96823 
L 79.2 59.96823 
" style="fill:none;stroke:#ff6347;stroke-linecap:square;stroke-width:1.5;"/>
    </g>
    <g id="line2d_27"/>
    <g id="text_22">
     <!-- A_Tr1 -->
     <g transform="translate(85.6 62.76823)scale(0.08 -0.08)">
      <defs>
       <path d="M -0.296875 72.90625 
L 61.375 72.90625 
L 61.375 64.59375 
L 35.5 64.59375 
L 35.5 0 
L 25.59375 0 
L 25.59375 64.59375 
L -0.296875 64.59375 
z
" id="DejaVuSans-84"/>
      </defs>
      <use xlink:href="#DejaVuSans-65"/>
      <use x="68.408203" xlink:href="#DejaVuSans-95"/>
      <use x="118.408203" xlink:href="#DejaVuSans-84"/>
      <use x="164.742188" xlink:href="#DejaVuSans-114"/>
      <use x="205.855469" xlink:href="#DejaVuSans-49"/>
     </g>
    </g>
    <g id="line2d_28">
     <path d="M 63.2 71.93323 
L 79.2 71.93323 
" style="fill:none;stroke:#ffa07a;stroke-linecap:square;stroke-width:1.5;"/>
    </g>
    <g id="line2d_29"/>
    <g id="text_23">
     <!-- A_Tr2 -->
     <g transform="translate(85.6 74.73323)scale(0.08 -0.08)">
      <use xlink:href="#DejaVuSans-65"/>
      <use x="68.408203" xlink:href="#DejaVuSans-95"/>
      <use x="118.408203" xlink:href="#DejaVuSans-84"/>
      <use x="164.742188" xlink:href="#DejaVuSans-114"/>
      <use x="205.855469" xlink:href="#DejaVuSans-50"/>
     </g>
    </g>
    <g id="line2d_30">
     <path d="M 123.1575 48.00323 
L 139.1575 48.00323 
" style="fill:none;stroke:#00008b;stroke-linecap:square;stroke-width:1.5;"/>
    </g>
    <g id="line2d_31"/>
    <g id="text_24">
     <!-- B_Ctr -->
     <g transform="translate(145.5575 50.80323)scale(0.08 -0.08)">
      <defs>
       <path d="M 19.671875 34.8125 
L 19.671875 8.109375 
L 35.5 8.109375 
Q 43.453125 8.109375 47.28125 11.40625 
Q 51.125 14.703125 51.125 21.484375 
Q 51.125 28.328125 47.28125 31.5625 
Q 43.453125 34.8125 35.5 34.8125 
z
M 19.671875 64.796875 
L 19.671875 42.828125 
L 34.28125 42.828125 
Q 41.5 42.828125 45.03125 45.53125 
Q 48.578125 48.25 48.578125 53.8125 
Q 48.578125 59.328125 45.03125 62.0625 
Q 41.5 64.796875 34.28125 64.796875 
z
M 9.8125 72.90625 
L 35.015625 72.90625 
Q 46.296875 72.90625 52.390625 68.21875 
Q 58.5 63.53125 58.5 54.890625 
Q 58.5 48.1875 55.375 44.234375 
Q 52.25 40.28125 46.1875 39.3125 
Q 53.46875 37.75 57.5 32.78125 
Q 61.53125 27.828125 61.53125 20.40625 
Q 61.53125 10.640625 54.890625 5.3125 
Q 48.25 0 35.984375 0 
L 9.8125 0 
z
" id="DejaVuSans-66"/>
      </defs>
      <use xlink:href="#DejaVuSans-66"/>
      <use x="68.603516" xlink:href="#DejaVuSans-95"/>
      <use x="118.603516" xlink:href="#DejaVuSans-67"/>
      <use x="188.427734" xlink:href="#DejaVuSans-116"/>
      <use x="227.636719" xlink:href="#DejaVuSans-114"/>
     </g>
    </g>
    <g id="line2d_32">
     <path d="M 123.1575 59.96823 
L 139.1575 59.96823 
" style="fill:none;stroke:#4169e1;stroke-linecap:square;stroke-width:1.5;"/>
    </g>
    <g id="line2d_33"/>
    <g id="text_25">
     <!-- B_Tr1 -->
     <g transform="translate(145.5575 62.76823)scale(0.08 -0.08)">
      <use xlink:href="#DejaVuSans-66"/>
      <use x="68.603516" xlink:href="#DejaVuSans-95"/>
      <use x="118.603516" xlink:href="#DejaVuSans-84"/>
      <use x="164.9375" xlink:href="#DejaVuSans-114"/>
      <use x="206.050781" xlink:href="#DejaVuSans-49"/>
     </g>
    </g>
    <g id="line2d_34">
     <path d="M 123.1575 71.93323 
L 139.1575 71.93323 
" style="fill:none;stroke:#b0c4de;stroke-linecap:square;stroke-width:1.5;"/>
    </g>
    <g id="line2d_35"/>
    <g id="text_26">
     <!-- B_Tr2 -->
     <g transform="translate(145.5575 74.73323)scale(0.08 -0.08)">
      <use xlink:href="#DejaVuSans-66"/>
      <use x="68.603516" xlink:href="#DejaVuSans-95"/>
      <use x="118.603516" xlink:href="#DejaVuSans-84"/>
      <use x="164.9375" xlink:href="#DejaVuSans-114"/>
      <use x="206.050781" xlink:href="#DejaVuSans-50"/>
     </g>
    </g>
   </g>
  </g>
 </g>
 <defs>
  <clipPath id="pc5a13fbcbb">
   <rect height="266.11552" width="394" x="56" y="37.52448"/>
  </clipPath>
 </defs>
</svg>
